<?xml version="1.0" encoding="utf-8"?>
<!-- Generator: Adobe Illustrator 16.0.0, SVG Export Plug-In . SVG Version: 6.00 Build 0)  -->
<!DOCTYPE svg PUBLIC "-//W3C//DTD SVG 1.1//EN" "http://www.w3.org/Graphics/SVG/1.1/DTD/svg11.dtd">
<svg version="1.1" id="Layer_1" xmlns="http://www.w3.org/2000/svg" xmlns:xlink="http://www.w3.org/1999/xlink" x="0px" y="0px"
	 width="64px" height="64px" viewBox="0 0 64 64" style="enable-background:new 0 0 64 64;" xml:space="preserve">
<style type="text/css">
<![CDATA[
	.st0{fill:#7E459A;}
	.st1{fill:#14B690;}
	.st2{fill:#E5E53E;}
	.st3{fill:#4D4D4D;}
	.st4{fill:#E9CC2B;}
	.st5{fill:none;stroke:#002A6A;stroke-width:2;stroke-miterlimit:10;}
	.st6{fill:#1B75BB;}
	.st7{fill:#1D9178;}
	.st8{fill:#ED8121;}
	.st9{fill:#50C0B4;}
	.st10{fill:#5495CF;}
	.st11{fill:#56BFA0;}
	.st12{fill:#F05A28;}
	.st13{fill:#F0820A;}
	.st14{fill:#F15A24;}
	.st15{fill:#F16522;}
	.st16{fill:#F48331;}
	.st17{fill:#F89E38;}
	.st18{fill:#927D00;}
	.st19{fill:#C7B299;}
	.st20{fill:#FBB03B;}
	.st21{fill:#FDC010;}
	.st22{fill:#FFBE13;}
	.st23{fill:#FFD700;}
	.st24{fill:#FFFFFF;}
	.st25{fill:#333333;}
	.st26{fill:#39B54A;}
	.st27{fill:#002A6A;}
	.st28{fill:#003964;}
	.st29{fill:#009245;}
	.st30{fill:#D3DE46;}
	.st31{fill:#D44327;}
	.st32{fill:#D76F34;}
	.st33{fill:#3FA7F3;}
	.st34{fill:#A34F9D;}
	.st35{fill:#0A64AA;}
	.st36{fill:#76327E;}
	.st37{fill:#DA5222;}
	.st38{fill:#A74B89;}
	.st39{fill:#404041;}
]]>
</style>
<g>
	<path class="st14" d="M32,0C14.327,0,0,14.327,0,32s14.327,32,32,32c17.674,0,32-14.327,32-32S49.674,0,32,0z"/>
	<g>
		<g>
			<g>
				<path class="st37" d="M42.094,55.5c-0.241,0-0.47-0.138-0.573-0.372c-0.138-0.316,0.004-0.683,0.319-0.823
					c1.092-0.482,2.156-1.051,3.166-1.691c0.293-0.185,0.678-0.096,0.863,0.194c0.184,0.291,0.098,0.677-0.195,0.861
					c-1.061,0.672-2.182,1.27-3.328,1.778C42.264,55.483,42.178,55.5,42.094,55.5z"/>
			</g>
			<g>
				<path class="st37" d="M46.737,52.815c-0.191,0-0.383-0.089-0.504-0.255c-0.203-0.279-0.143-0.669,0.135-0.873
					c2.576-1.885,4.729-4.219,6.396-6.935c0.182-0.293,0.566-0.384,0.858-0.207c0.293,0.181,0.388,0.568,0.206,0.86
					c-1.754,2.855-4.016,5.307-6.723,7.289C46.995,52.775,46.866,52.815,46.737,52.815z"/>
			</g>
			<g>
				<path class="st37" d="M54.745,42.982c-0.088,0-0.174-0.018-0.258-0.056c-0.314-0.143-0.453-0.513-0.311-0.828
					c1.443-3.172,2.176-6.561,2.176-10.075c0-6.734-2.688-13.001-7.566-17.643c-0.25-0.239-0.262-0.634-0.021-0.884
					c0.236-0.25,0.632-0.259,0.88-0.02c5.131,4.881,7.956,11.467,7.956,18.546c0,3.693-0.77,7.257-2.288,10.593
					C55.207,42.847,54.98,42.982,54.745,42.982z"/>
			</g>
			<g>
				<path class="st37" d="M10.954,19.195c-0.115,0-0.232-0.033-0.336-0.099c-0.291-0.186-0.375-0.572-0.189-0.863
					c0.848-1.321,1.819-2.573,2.896-3.719c0.234-0.25,0.631-0.263,0.882-0.027c0.25,0.237,0.265,0.631,0.028,0.883
					c-1.021,1.089-1.949,2.281-2.756,3.538C11.362,19.093,11.159,19.195,10.954,19.195z"/>
			</g>
			<g>
				<path class="st37" d="M9.758,44.019c-0.227,0-0.446-0.124-0.557-0.339c-1.857-3.63-2.801-7.551-2.801-11.655
					c0-4.199,1.037-8.363,3.004-12.041c0.162-0.304,0.539-0.421,0.843-0.257c0.306,0.162,0.418,0.541,0.257,0.844
					c-1.867,3.499-2.855,7.461-2.855,11.454c0,3.905,0.896,7.635,2.664,11.085c0.159,0.308,0.038,0.684-0.272,0.841
					C9.952,43.996,9.854,44.019,9.758,44.019z"/>
			</g>
			<g>
				<path class="st37" d="M19.799,54.445c-0.105,0-0.209-0.026-0.307-0.08c-3.502-1.965-6.537-4.77-8.775-8.113
					c-0.193-0.286-0.115-0.674,0.17-0.865c0.287-0.193,0.673-0.117,0.867,0.17c2.129,3.181,5.017,5.85,8.349,7.719
					c0.301,0.168,0.409,0.549,0.241,0.85C20.229,54.33,20.016,54.445,19.799,54.445z"/>
			</g>
			<g>
				<path class="st37" d="M25.293,56.712c-0.055,0-0.111-0.007-0.169-0.024c-1.368-0.379-2.714-0.879-4.003-1.484
					c-0.312-0.146-0.445-0.519-0.299-0.832c0.146-0.312,0.52-0.447,0.83-0.3c1.225,0.576,2.506,1.052,3.809,1.414
					c0.332,0.093,0.525,0.436,0.433,0.768C25.819,56.531,25.567,56.712,25.293,56.712z"/>
			</g>
		</g>
		<g>
			<path class="st37" d="M32,51.2c-10.587,0-19.199-8.614-19.199-19.2c0-10.586,8.611-19.199,19.199-19.199
				c10.586,0,19.202,8.613,19.202,19.199C51.202,42.586,42.586,51.2,32,51.2z M32,14.039c-9.904,0-17.96,8.057-17.96,17.961
				S22.096,49.962,32,49.962c9.905,0,17.961-8.058,17.961-17.962S41.905,14.039,32,14.039z"/>
		</g>
	</g>
	<path class="st24" d="M34.934,36.104c0.355,0.341,0.646,1.023,0.646,1.517v3.723c0,0.491-0.402,0.896-0.895,0.896h-5.371
		c-0.492,0-0.895-0.404-0.895-0.896v-3.723c0-0.494,0.291-1.176,0.646-1.516l2.289-2.198c0.354-0.339,0.935-0.339,1.291,0
		L34.934,36.104z M41.346,28.418h-3.725c-0.492,0-1.174,0.29-1.516,0.646l-2.197,2.288c-0.34,0.355-0.34,0.937,0,1.292l2.197,2.29
		c0.342,0.355,1.024,0.647,1.516,0.647h3.725c0.492,0,0.895-0.405,0.895-0.896v-5.372C42.241,28.822,41.838,28.418,41.346,28.418z
		 M31.354,30.089c0.356,0.343,0.936,0.343,1.291,0l2.29-2.195c0.355-0.341,0.646-1.023,0.646-1.516v-3.724
		c0-0.493-0.402-0.893-0.895-0.893h-5.371c-0.492,0-0.895,0.4-0.895,0.893v3.724c0,0.493,0.289,1.175,0.645,1.516L31.354,30.089z
		 M30.092,31.353l-2.198-2.288c-0.341-0.356-1.023-0.646-1.515-0.646h-3.723c-0.493,0-0.896,0.403-0.896,0.896v5.372
		c0,0.491,0.404,0.896,0.896,0.896h3.723c0.492,0,1.174-0.292,1.515-0.647l2.198-2.289C30.432,32.291,30.432,31.71,30.092,31.353z"
		/>
</g>
</svg>
