<?xml version="1.0" encoding="utf-8"?>
<!-- Generator: Adobe Illustrator 16.0.0, SVG Export Plug-In . SVG Version: 6.00 Build 0)  -->
<!DOCTYPE svg PUBLIC "-//W3C//DTD SVG 1.1//EN" "http://www.w3.org/Graphics/SVG/1.1/DTD/svg11.dtd">
<svg version="1.1" id="Layer_1" xmlns="http://www.w3.org/2000/svg" xmlns:xlink="http://www.w3.org/1999/xlink" x="0px" y="0px"
	 width="64px" height="64px" viewBox="0 0 64 64" style="enable-background:new 0 0 64 64;" xml:space="preserve">
<style type="text/css">
<![CDATA[
	.st0{fill:#AA4380;}
	.st1{fill:#AD4298;}
	.st2{fill:#4B4B4B;}
	.st3{fill:#4D4D4D;}
	.st4{fill:none;stroke:#002A6A;stroke-width:2;stroke-miterlimit:10;}
	.st5{fill:#853392;}
	.st6{fill:#1B75BB;}
	.st7{fill:#1DB08A;}
	.st8{fill:#ED8121;}
	.st9{fill:#56BEB4;}
	.st10{fill:#59BF9D;}
	.st11{opacity:0.75;fill:#222222;}
	.st12{fill:#F05A28;}
	.st13{fill:#F0820A;}
	.st14{fill:#222222;}
	.st15{fill:#F15A24;}
	.st16{fill:#F16522;}
	.st17{fill:#F1D10E;}
	.st18{fill:#F2E601;}
	.st19{fill:#258B70;}
	.st20{fill:#F47E21;}
	.st21{fill:#F6A021;}
	.st22{fill:#927D00;}
	.st23{fill:url(#SVGID_1_);}
	.st24{fill:#C7B299;}
	.st25{fill:#FBB03B;}
	.st26{fill:#FFBE13;}
	.st27{fill:#FFD700;}
	.st28{fill:#FFD900;}
	.st29{fill:#FFFFFF;}
	.st30{fill:#333333;}
	.st31{fill:#39B54A;}
	.st32{fill:#002A6A;}
	.st33{fill:#003964;}
	.st34{fill:#009245;}
	.st35{fill:#D44327;}
	.st36{fill:#D56926;}
	.st37{fill:#3FA7F3;}
	.st38{fill:#732A74;}
	.st39{fill:#0A64AA;}
	.st40{fill:#DA5222;}
	.st41{fill:#404041;}
	.st42{fill:#DFE222;}
]]>
</style>
<path class="st29" d="M64,10c0-5.5-4.5-10-10-10c-3,0-5.7,1.4-7.5,3.5C42.1,1.2,37.1,0,31.9,0C14.2,0.1-0.1,14.4,0,32.1
	C0.1,49.8,14.4,64.1,32.1,64C49.8,63.9,64.1,49.6,64,31.9c0-5.2-1.3-10-3.5-14.3C62.7,15.7,64,13,64,10z"/>
<g>
	<polygon class="st38" points="51.9,14 58.4,10 51.9,6 	"/>
	<path class="st38" d="M54,2c-4.4,0-8,3.6-8,8c0,4.4,3.6,8,8,8c4.4,0,8-3.6,8-8C62,5.6,58.4,2,54,2z M54,17c-3.9,0-7-3.1-7-7
		c0-3.9,3.1-7,7-7c3.9,0,7,3.1,7,7C61,13.8,57.9,17,54,17z"/>
</g>
<g>
	<polygon class="st0" points="32,24 27,32 37,32 	"/>
	<polygon class="st20" points="37,16 32,24 42,24 	"/>
	<polygon class="st5" points="27,16 22,24 32,24 	"/>
	<polygon class="st1" points="27,32 32,24 22,24 	"/>
	<polygon class="st21" points="37,32 42,24 32,24 	"/>
	<polygon class="st36" points="42,24 47,16 37,16 	"/>
	<polygon class="st38" points="22,24 27,16 17,16 	"/>
	<polygon class="st9" points="32,40 37,32 27,32 	"/>
	<polygon class="st7" points="27,48 32,40 22,40 	"/>
	<polygon class="st18" points="37,48 42,40 32,40 	"/>
	<polygon class="st42" points="37,32 32,40 42,40 	"/>
	<polygon class="st10" points="27,32 22,40 32,40 	"/>
	<polygon class="st19" points="22,40 17,48 27,48 	"/>
	<polygon class="st17" points="42,40 37,48 47,48 	"/>
</g>
</svg>
