<svg id="Layer_1" data-name="Layer 1" xmlns="http://www.w3.org/2000/svg" viewBox="0 0 64 64"><defs><style>.cls-1{fill:#333;}.cls-2{fill:#fff;}</style></defs><title>new</title><circle class="cls-1" cx="32" cy="32" r="32"/><path class="cls-2" d="M12,22.79a22.47,22.47,0,0,0-.57,18.67L12,40.8A22.12,22.12,0,0,1,12,22.79Z"/><path class="cls-2" d="M52.05,22.8a22.09,22.09,0,0,1-.08,18l.65.66A22.44,22.44,0,0,0,52.05,22.8Z"/><path class="cls-2" d="M41.1,51.69a22.1,22.1,0,0,1-18.2,0l-1,1a22.45,22.45,0,0,0,20.26,0Z"/><polygon class="cls-2" points="17.37 28.84 18.2 31.39 20.89 31.39 18.72 32.97 19.55 35.53 17.37 33.95 15.2 35.53 16.03 32.97 13.86 31.39 16.54 31.39 17.37 28.84"/><polygon class="cls-2" points="46.63 28.84 47.46 31.39 50.14 31.39 47.97 32.97 48.8 35.52 46.63 33.95 44.45 35.53 45.28 32.97 43.11 31.39 45.8 31.39 46.63 28.84"/><polygon class="cls-2" points="32 43.47 32.83 46.02 35.52 46.02 33.34 47.6 34.17 50.15 32 48.57 29.83 50.15 30.66 47.6 28.48 46.02 31.17 46.02 32 43.47"/><polygon class="cls-2" points="32 14.21 32.83 16.77 35.52 16.77 33.34 18.34 34.17 20.9 32 19.32 29.83 20.9 30.66 18.34 28.48 16.77 31.17 16.77 32 14.21"/><rect class="cls-2" x="30.53" y="19.86" width="24.57" height="3.01" transform="translate(-2.57 36.51) rotate(-44.98)"/><rect class="cls-2" x="8.9" y="41.49" width="24.57" height="3.01" transform="translate(-24.2 27.58) rotate(-45)"/><rect class="cls-2" x="26.95" y="6.07" width="3.01" height="45.14" transform="translate(-11.91 28.51) rotate(-45)"/><rect class="cls-2" x="44.68" y="44.36" width="3.01" height="4.01" transform="translate(-19.26 46.22) rotate(-44.98)"/><rect class="cls-2" x="47.87" y="49.06" width="3.01" height="1" transform="translate(-20.58 49.43) rotate(-45)"/><rect class="cls-2" x="46.81" y="47.99" width="3.01" height="1" transform="translate(-20.14 48.37) rotate(-45)"/><rect class="cls-2" x="49.29" y="49.97" width="3.01" height="2.01" transform="translate(-21.17 50.85) rotate(-45)"/></svg>