<svg id="Layer_1" data-name="Layer 1" xmlns="http://www.w3.org/2000/svg" viewBox="0 0 64 64"><defs><style>.cls-1{fill:#fff;}</style></defs><title>new</title><path class="cls-1" d="M32,0A32,32,0,1,0,64,32,32,32,0,0,0,32,0Z"/><path d="M60.75,17.94c-.22-.44-.45-.88-.68-1.32-8.51,4.11-16.13,11-19.29,17.74-2.59.12-5.19.21-7.78.29,3.14-4.83,5.93-12.76,14.93-16.5a.58.58,0,0,0,.35-.59.47.47,0,0,0-.59-.41c-1.75.49-7.3,2.79-12.92,8.66l-.1.11a.48.48,0,0,0-.08-.16.55.55,0,0,0-.71-.12S31.55,27.92,30,27.7c-3-.42,7.22-9.59-3.53-10.3-7.24-.48-14,4.13-17.49,11.14-.05.1-.08.2-.13.3A18.54,18.54,0,0,0,.17,35.3,33.59,33.59,0,0,0,.7,38.66a18.3,18.3,0,0,1,7.66-8.38C7.4,34.06,9.18,38,15,38A10,10,0,0,0,22,35.79c1.8,0,3.59-.06,5.39-.11C22.45,43,17,50.17,7,50.17A7.27,7.27,0,0,1,5.56,50c.24.35.48.69.73,1,.4,0,.81.06,1.24.06,3,0,14.23-.8,24.86-15.58q4-.15,8-.37a14.12,14.12,0,0,0-1.19,5.37c0,5.88,4.15,7.65,7,7.65A8.86,8.86,0,0,0,50.7,47.1a.55.55,0,0,0,.18-.74.44.44,0,0,0-.61-.14,4.88,4.88,0,0,1-3.9,1c-8.06-.51-3.87-8.28-1.46-12.35,1-.06,1.93-.11,2.89-.18a.35.35,0,0,0,.34-.36.36.36,0,0,0-.36-.35l-2.41.13C50.43,25.72,55.92,20.81,60.75,17.94ZM28.05,34.75l-4.86.06c1.55-1.44,3.77-3.9,3.77-3.9a.55.55,0,0,0,0-.78h0a.46.46,0,0,0-.68,0A47.56,47.56,0,0,1,22,34.6l-.31.22-3.76,0a.57.57,0,0,0-.63.54.46.46,0,0,0,.47.48l2.38,0a10.56,10.56,0,0,1-5.26,1.46c-6.06,0-4.93-6-3.76-8.26a19.26,19.26,0,0,1,8.23-1,.5.5,0,0,0,.54-.5.46.46,0,0,0-.45-.47,32.22,32.22,0,0,0-7.64.86c6-9,13.31-9.78,14.55-9.78,7.41,0-4.31,9.54,3.74,10.55a3.8,3.8,0,0,0,2.64-.57C31.14,30.17,29.61,32.45,28.05,34.75Z"/></svg>