<svg id="Layer_1" data-name="Layer 1" xmlns="http://www.w3.org/2000/svg" viewBox="0 0 64 64"><defs><style>.cls-1{fill:#fff;}</style></defs><title>new</title><path d="M64,10A10,10,0,0,0,46.45,3.45a32,32,0,1,0,14.1,14.1A10,10,0,0,0,64,10Z"/><path class="cls-1" d="M22.65,30.47c2.31.59,5.71,1,11.85.76,19.12-2.07,20.11-8.82,19.39-10.54-.82-2-4.51-3.66-14-1.86a38.89,38.89,0,0,0-18.9,9c-.6-.25-1.2-.49-1.86-.73-3.6-1.31-3.77-3.88-3.44-5.08a2.88,2.88,0,0,1,2.08-2c.54,0,1.63.22,1.36-.17.22-.82-5.79-.76-4.53,5.52.22,1.09,1.2,2.51,3.82,3.71.34.1.67.21,1,.33a25,25,0,0,0-4.82,7.38c-1.86,5.24.54,12.89,11.47,11.52,6.33-1.06,8.83-5.14,9.61-7.21,2-5.41-4.75-5.9-7.29-4.67-3.41,1.65-3.85,6.23-3.2,5.44,3.73-7.91,10.41-5.36,10.08-1.75-1.8,9.58-18.76,9.42-18.43,3.44A21.75,21.75,0,0,1,22.65,30.47Zm30.5-10.16a3.3,3.3,0,0,1-.41,3.44c-2.09,3-8.27,6.66-21.35,6.39A24.39,24.39,0,0,1,24,29C32.81,20.22,47.3,16.09,53.15,20.31Z"/><polygon class="cls-1" points="51.9 14 58.4 10 51.9 6 51.9 14"/><path class="cls-1" d="M54,2a8,8,0,1,0,8,8A8,8,0,0,0,54,2Zm0,15a7,7,0,1,1,7-7A7,7,0,0,1,54,17Z"/></svg>