<?xml version="1.0" encoding="utf-8"?>
<!-- Generator: Adobe Illustrator 16.0.0, SVG Export Plug-In . SVG Version: 6.00 Build 0)  -->
<!DOCTYPE svg PUBLIC "-//W3C//DTD SVG 1.1//EN" "http://www.w3.org/Graphics/SVG/1.1/DTD/svg11.dtd">
<svg version="1.1" id="Layer_1" xmlns="http://www.w3.org/2000/svg" xmlns:xlink="http://www.w3.org/1999/xlink" x="0px" y="0px"
	 width="64px" height="64px" viewBox="0 0 64 64" style="enable-background:new 0 0 64 64;" xml:space="preserve">
<style type="text/css">
<![CDATA[
	.st0{fill:#7E459A;}
	.st1{fill:#14B690;}
	.st2{fill:#E5E53E;}
	.st3{fill:#4D4D4D;}
	.st4{fill:#E9CC2B;}
	.st5{fill:none;stroke:#002A6A;stroke-width:2;stroke-miterlimit:10;}
	.st6{fill:#1B75BB;}
	.st7{fill:#1D9178;}
	.st8{fill:#ED8121;}
	.st9{fill:#50C0B4;}
	.st10{fill:#5495CF;}
	.st11{fill:#56BFA0;}
	.st12{fill:#F05A28;}
	.st13{fill:#F0820A;}
	.st14{fill:#F15A24;}
	.st15{fill:#F16522;}
	.st16{fill:#F48331;}
	.st17{fill:#F89E38;}
	.st18{fill:#927D00;}
	.st19{fill:#C7B299;}
	.st20{fill:#FBB03B;}
	.st21{fill:#FDC010;}
	.st22{fill:#FFBE13;}
	.st23{fill:#FFD700;}
	.st24{fill:#FFFFFF;}
	.st25{fill:#333333;}
	.st26{fill:#39B54A;}
	.st27{fill:#002A6A;}
	.st28{fill:#003964;}
	.st29{fill:#009245;}
	.st30{fill:#D3DE46;}
	.st31{fill:#D44327;}
	.st32{fill:#D76F34;}
	.st33{fill:#3FA7F3;}
	.st34{fill:#A34F9D;}
	.st35{fill:#0A64AA;}
	.st36{fill:#76327E;}
	.st37{fill:#DA5222;}
	.st38{fill:#A74B89;}
	.st39{fill:#404041;}
]]>
</style>
<g>
	<path class="st24" d="M32,0C14.327,0,0,14.327,0,32s14.327,32,32,32c17.674,0,32-14.327,32-32S49.674,0,32,0z"/>
	<g>
		<path class="st27" d="M32.301,48.292c-7.443,0-13.273-2.867-16.375-7.62c-0.709-0.995-1.275-2.096-1.707-3.287
			c2.271,7.949,9.416,13.815,17.84,13.815c4.24,0,8.176-1.939,11.266-5.148c0.787,0.545,1.211,1.999,1.574,3.453h1.695V36.181
			h-1.756C43.204,43.931,38.297,48.292,32.301,48.292z"/>
		<path class="st27" d="M32.301,15.708c5.996,0,10.902,4.241,12.537,12.113h1.756V14.496h-1.695
			c-0.363,1.516-0.787,2.847-1.574,3.453c-3.09-3.272-7.025-5.148-11.266-5.148c-8.424,0-15.568,5.865-17.84,13.814
			c0.432-1.188,0.998-2.292,1.707-3.287C19.028,18.576,24.858,15.708,32.301,15.708z"/>
		<g>
			<path class="st19" d="M42.108,29.976c-1.701-5.413-5.422-9.301-11.901-9.498c5.118,0.39,6.599,6.377,6.599,11.521
				c0,5.145-1.48,11.131-6.599,11.519c6.479-0.194,10.2-4.082,11.901-9.494C42.442,32.957,43.588,32,45.6,32
				C43.588,32,42.442,31.044,42.108,29.976z"/>
			<path class="st19" d="M23.612,32c0-5.145,1.479-11.132,6.595-11.521c-6.476,0.197-10.196,4.085-11.897,9.498
				C17.973,31.044,16.829,32,14.817,32c2.012,0,3.156,0.957,3.492,2.024c1.701,5.413,5.421,9.3,11.897,9.494
				C25.09,43.131,23.612,37.145,23.612,32z"/>
		</g>
	</g>
	<path class="st5" d="M32,3.2C16.094,3.2,3.2,16.095,3.2,32c0,15.906,12.895,28.801,28.8,28.801
		c15.907,0,28.801-12.895,28.801-28.801C60.801,16.095,47.907,3.2,32,3.2z"/>
</g>
</svg>
