<?xml version="1.0" encoding="utf-8"?>
<!-- Generator: Adobe Illustrator 16.0.0, SVG Export Plug-In . SVG Version: 6.00 Build 0)  -->
<!DOCTYPE svg PUBLIC "-//W3C//DTD SVG 1.1//EN" "http://www.w3.org/Graphics/SVG/1.1/DTD/svg11.dtd">
<svg version="1.1" id="Layer_1" xmlns="http://www.w3.org/2000/svg" xmlns:xlink="http://www.w3.org/1999/xlink" x="0px" y="0px"
	 width="64px" height="64px" viewBox="0 0 64 64" style="enable-background:new 0 0 64 64;" xml:space="preserve">
<g>
	<circle style="fill:#FFFFFF;" cx="32" cy="32" r="32"/>
</g>
<path style="fill:#F15A24;" d="M44.664,16.13c-0.242-0.164-0.556-0.174-0.809-0.028c0,0-30.024,17.355-30.466,17.609
	c-0.136,0.076-0.248,0.193-0.318,0.344c-0.167,0.359-0.032,0.786,0.311,0.984c0.026,0.016,0.051,0.029,0.079,0.04
	c0.013,0.006,0.028,0.011,0.042,0.016l8.091,2.949c0.395,0.147,0.835-0.06,0.978-0.457c0.145-0.396-0.059-0.835-0.456-0.979
	l-6.617-2.412l27.765-15.987l-3.448,24.563l-8.752-3.189c-0.324-0.117-0.687-0.003-0.886,0.281l-3.461,4.949v-5.878L37.283,27.18
	c0.282-0.313,0.256-0.796-0.057-1.079c-0.313-0.282-0.795-0.257-1.078,0.057L25.385,38.13c-0.126,0.141-0.196,0.322-0.196,0.511
	v8.595c0,0.333,0.216,0.628,0.534,0.729C25.799,47.988,25.875,48,25.952,48c0.245,0,0.48-0.118,0.625-0.325l4.514-6.455l9.088,3.312
	c0.215,0.078,0.456,0.055,0.653-0.064c0.198-0.118,0.331-0.319,0.363-0.548l3.797-27.049C45.034,16.581,44.905,16.294,44.664,16.13z
	"/>
</svg>
