<?xml version="1.0" encoding="utf-8"?>
<!-- Generator: Adobe Illustrator 16.0.0, SVG Export Plug-In . SVG Version: 6.00 Build 0)  -->
<!DOCTYPE svg PUBLIC "-//W3C//DTD SVG 1.1//EN" "http://www.w3.org/Graphics/SVG/1.1/DTD/svg11.dtd">
<svg version="1.1" id="Layer_1" xmlns="http://www.w3.org/2000/svg" xmlns:xlink="http://www.w3.org/1999/xlink" x="0px" y="0px"
	 width="64px" height="64px" viewBox="0 0 64 64" style="enable-background:new 0 0 64 64;" xml:space="preserve">
<style type="text/css">
<![CDATA[
	.st0{fill:#7E459A;}
	.st1{fill:#14B690;}
	.st2{fill:#E5E53E;}
	.st3{fill:#4D4D4D;}
	.st4{fill:#E9CC2B;}
	.st5{fill:none;stroke:#002A6A;stroke-width:2;stroke-miterlimit:10;}
	.st6{fill:#1B75BB;}
	.st7{fill:#1D9178;}
	.st8{fill:#ED8121;}
	.st9{fill:#50C0B4;}
	.st10{fill:#5495CF;}
	.st11{fill:#56BFA0;}
	.st12{fill:#F05A28;}
	.st13{fill:#F0820A;}
	.st14{fill:#F15A24;}
	.st15{fill:#F16522;}
	.st16{fill:#F48331;}
	.st17{fill:#F89E38;}
	.st18{fill:#927D00;}
	.st19{fill:#C7B299;}
	.st20{fill:#FBB03B;}
	.st21{fill:#FDC010;}
	.st22{fill:#FFBE13;}
	.st23{fill:#FFD700;}
	.st24{fill:#FFFFFF;}
	.st25{fill:#333333;}
	.st26{fill:#39B54A;}
	.st27{fill:#002A6A;}
	.st28{fill:#003964;}
	.st29{fill:#009245;}
	.st30{fill:#D3DE46;}
	.st31{fill:#D44327;}
	.st32{fill:#D76F34;}
	.st33{fill:#3FA7F3;}
	.st34{fill:#A34F9D;}
	.st35{fill:#0A64AA;}
	.st36{fill:#76327E;}
	.st37{fill:#DA5222;}
	.st38{fill:#A74B89;}
	.st39{fill:#404041;}
]]>
</style>
<g>
	<g>
		<path class="st26" d="M32,0C14.326,0,0,14.327,0,32s14.326,32,32,32s32-14.327,32-32S49.674,0,32,0z"/>
	</g>
	<g>
		<path class="st29" d="M34.721,14.012l-0.455-0.526c-0.857-0.984-1.486-1.639-1.512-1.668L32,11.035l-0.756,0.783
			c-0.006,0.006-0.641,0.666-1.514,1.668l-0.457,0.526l0.308,0.625c0.135,0.276,0.29,0.566,0.461,0.867
			c-1.107,1.687-2.537,3.398-3.521,4.513c1.451,0.819,3.654,1.129,5.476,1.129c1.823,0,4.026-0.31,5.477-1.129
			c-0.984-1.115-2.412-2.827-3.521-4.513c0.171-0.303,0.326-0.593,0.462-0.869L34.721,14.012z"/>
		<path class="st29" d="M39.279,21.004l-0.948,0.534c-2.166,1.223-5.15,1.354-6.334,1.354c-1.183,0-4.167-0.131-6.333-1.354
			l-0.947-0.534l-0.113,0.341c-0.404,1.217-0.383,2.227,0.062,2.998c1.112,1.925,4.518,2.61,7.332,2.61
			c2.817,0,6.221-0.685,7.333-2.61c0.445-0.773,0.467-1.782,0.062-2.998L39.279,21.004z"/>
		<path class="st29" d="M31.863,53.452c-0.764-0.573-1.449-1.12-2.071-1.637c-1.898-0.098-3.658-0.321-5.091-0.653
			c-0.162-0.038-0.375-0.087-0.613-0.151c0.258,3.44,3.947,6.58,7.939,9.472c1.668,1.21,3.051,2.274,4.191,3.24
			c1.461-0.192,2.891-0.484,4.283-0.867C39.799,59.666,36.02,56.584,31.863,53.452z"/>
		<path class="st29" d="M31.854,63.932c-6.592-4.67-7.949-7.341-7.957-9.918l-0.344,6.909c-0.023,0.693,0.105,1.376,0.361,2.046
			c2.566,0.668,5.26,1.027,8.035,1.03C31.917,63.978,31.887,63.954,31.854,63.932z"/>
		<path class="st29" d="M39.303,37.447l-0.111-2.352h-0.016c-0.08,0.657-3.258,1.184-7.176,1.184c-3.918,0-7.098-0.526-7.178-1.184
			h-0.008l-0.109,2.351c-1.902,0.492-2.863,1.162-2.938,2.039c-0.004,0.034-0.008,0.071-0.008,0.108
			c0,0.989,1.092,1.724,3.336,2.243C26.947,42.265,29.398,42.5,32,42.5c2.6,0,5.053-0.235,6.904-0.665
			c2.244-0.52,3.336-1.254,3.336-2.243c0-0.038-0.006-0.074-0.008-0.108C42.158,38.607,41.199,37.94,39.303,37.447z"/>
		<path class="st29" d="M25.57,34.093c0.07,0.026,0.145,0.053,0.22,0.079c0.014,0.005,0.028,0.01,0.043,0.015
			c0.073,0.024,0.149,0.049,0.227,0.073c0.02,0.006,0.039,0.012,0.059,0.018c0.076,0.024,0.156,0.045,0.238,0.067
			c0.023,0.007,0.045,0.014,0.066,0.02c0.105,0.026,0.213,0.052,0.324,0.08c0.213,0.049,0.438,0.093,0.67,0.136
			c0.022,0.004,0.043,0.006,0.067,0.013c0.224,0.04,0.457,0.076,0.697,0.108c0.002,0.001,0.002,0.001,0.002,0.001
			c1.146,0.161,2.451,0.247,3.816,0.247c1.66,0,3.236-0.128,4.535-0.361c0.02-0.004,0.037-0.007,0.057-0.011
			c0.229-0.042,0.451-0.085,0.658-0.133c1.707-0.396,2.537-0.953,2.537-1.707c0-0.027-0.004-0.055-0.006-0.083
			c-0.059-0.699-0.864-1.224-2.451-1.604v-3.084c0.488-0.279,0.871-0.608,1.092-0.995c0.16-0.278,0.221-0.611,0.207-0.984
			c-2.111,1.453-5.465,1.591-6.631,1.591c-1.166,0-4.519-0.138-6.63-1.591c-0.014,0.373,0.047,0.707,0.207,0.984
			c0.227,0.396,0.621,0.73,1.125,1.013v3.06c-1.609,0.381-2.422,0.907-2.48,1.611c-0.004,0.028-0.006,0.055-0.006,0.083
			c0,0.55,0.443,0.995,1.348,1.35h-0.002C25.562,34.088,25.566,34.09,25.57,34.093z M37.33,31.599
			c1.117,0.281,1.832,0.648,1.917,1.056c0.004,0.028,0.008,0.055,0.008,0.083c0,0.35-0.457,0.673-1.242,0.942
			c-0.205-0.173-0.434-0.339-0.684-0.493V31.599z M32.758,29.04c1.098-0.05,2.166-0.206,3.086-0.47v2.207
			c-0.938-0.133-1.984-0.217-3.086-0.241V29.04z M32.758,31.066c1.125,0.027,2.172,0.113,3.086,0.245v1.186
			c-0.91-0.318-1.959-0.524-3.086-0.59V31.066z M28.186,28.578c0.922,0.262,1.99,0.415,3.084,0.462v1.493
			c-1.098,0.025-2.147,0.108-3.084,0.238V28.578z M28.186,31.31c0.914-0.133,1.961-0.22,3.084-0.245v0.841
			c-1.125,0.063-2.174,0.267-3.084,0.581V31.31z M24.744,32.737c0-0.027,0.003-0.055,0.007-0.083
			c0.086-0.409,0.813-0.782,1.948-1.062v1.579c-0.262,0.158-0.5,0.327-0.713,0.508C25.201,33.411,24.744,33.087,24.744,32.737z"/>
		<path class="st29" d="M21.768,47.11c-0.004,0.035-0.008,0.071-0.008,0.109c0,0.988,1.092,1.723,3.336,2.243
			c1.852,0.429,4.303,0.665,6.904,0.665c2.6,0,5.053-0.236,6.904-0.665c2.244-0.521,3.336-1.255,3.336-2.243
			c0-0.039-0.006-0.074-0.008-0.109c-0.035-0.412-0.266-0.776-0.695-1.101v-3.98c-0.893,0.477-1.895,0.71-2.396,0.827
			c-1.928,0.447-4.463,0.692-7.141,0.692s-5.213-0.246-7.141-0.692c-0.504-0.116-1.506-0.35-2.401-0.827l0.008,3.977
			C22.033,46.331,21.801,46.698,21.768,47.11z"/>
		<path class="st29" d="M39.98,51.028v-0.04c-0.094,0.021-0.608,0.157-0.682,0.174c-1.412,0.328-3.141,0.546-5.006,0.648
			c4.204,3.468,5.817,5.662,6.131,8.11l-0.24-4.846l-0.104-2.062C40.08,53.013,40.014,51.688,39.98,51.028z"/>
	</g>
	<path class="st29" d="M61.242,31.613c-0.016-0.511,0-1.014-0.049-1.545c-0.039-0.527-0.061-1.061-0.135-1.585
		c-0.238-2.114-0.715-4.261-1.449-6.375c-0.727-2.116-1.758-4.177-3.014-6.135c-2.516-3.91-6.088-7.348-10.375-9.724
		c-2.137-1.192-4.453-2.104-6.846-2.743c-1.203-0.29-2.419-0.555-3.654-0.696c-0.615-0.091-1.236-0.133-1.857-0.18
		c-0.309-0.03-0.619-0.034-0.932-0.043l-0.947-0.024L31.07,2.584c-0.303,0.009-0.605,0.012-0.922,0.042
		c-0.627,0.047-1.256,0.09-1.869,0.181c-1.234,0.141-2.451,0.405-3.655,0.696c-2.394,0.639-4.709,1.552-6.847,2.744
		C13.49,8.622,9.92,12.061,7.402,15.971c-1.254,1.958-2.287,4.018-3.014,6.135c-0.734,2.114-1.211,4.262-1.449,6.375
		c-0.123,1.056-0.176,2.104-0.184,3.137L2.75,32.021l0.016,0.379c0.012,0.252,0.023,0.503,0.033,0.753
		c0.027,0.5,0.027,0.991,0.105,1.496c0.061,0.499,0.119,0.994,0.179,1.485c0.069,0.489,0.18,0.96,0.268,1.435
		c0.047,0.236,0.092,0.471,0.139,0.705c0.045,0.234,0.121,0.46,0.18,0.689c0.123,0.455,0.246,0.906,0.369,1.353
		c1.104,3.536,2.787,6.528,4.59,8.91c1.809,2.387,3.746,4.164,5.445,5.457c0.213,0.163,0.408,0.334,0.619,0.475
		c0.209,0.143,0.412,0.28,0.609,0.415c0.396,0.262,0.756,0.527,1.115,0.736c0.36,0.208,0.692,0.4,0.997,0.575
		c0.307,0.172,0.576,0.344,0.837,0.46c1.028,0.5,1.575,0.766,1.575,0.766s-0.536-0.288-1.541-0.827
		c-0.256-0.126-0.52-0.308-0.816-0.492c-0.297-0.186-0.619-0.39-0.969-0.61c-0.348-0.221-0.693-0.5-1.08-0.774
		c-0.191-0.138-0.389-0.282-0.592-0.429c-0.204-0.145-0.393-0.323-0.6-0.489c-1.647-1.331-3.508-3.144-5.215-5.546
		c-0.207-0.304-0.416-0.613-0.629-0.927c-0.107-0.157-0.215-0.315-0.322-0.474c-0.098-0.166-0.195-0.334-0.293-0.502
		c-0.197-0.338-0.395-0.679-0.598-1.026c-0.105-0.17-0.193-0.353-0.281-0.536c-0.09-0.183-0.18-0.367-0.27-0.551
		c-0.758-1.465-1.348-3.097-1.879-4.819c-0.109-0.437-0.219-0.878-0.33-1.324c-0.053-0.224-0.122-0.445-0.161-0.673
		c-0.039-0.229-0.08-0.458-0.121-0.69c-0.074-0.461-0.174-0.925-0.23-1.396c-0.047-0.471-0.094-0.946-0.143-1.425
		c-0.062-0.473-0.055-0.977-0.074-1.476c-0.008-0.25-0.014-0.5-0.021-0.752l-0.012-0.38l0.014-0.357c0.021-1,0.09-2.016,0.225-3.036
		c0.262-2.04,0.754-4.106,1.492-6.132c0.738-2.027,1.738-4.005,2.965-5.875c2.451-3.746,5.928-6.986,10.031-9.258
		c2.051-1.137,4.27-2.002,6.563-2.608c1.152-0.273,2.316-0.524,3.5-0.654c0.592-0.087,1.178-0.123,1.764-0.167
		c0.289-0.028,0.596-0.031,0.9-0.038l0.912-0.023l0.877,0.021c0.297,0.007,0.596,0.01,0.893,0.038
		c0.594,0.043,1.188,0.081,1.775,0.167c1.184,0.13,2.348,0.381,3.5,0.655c2.293,0.606,4.512,1.47,6.562,2.607
		c4.106,2.27,7.583,5.513,10.034,9.258c1.227,1.871,2.229,3.848,2.965,5.876c0.738,2.026,1.23,4.091,1.492,6.132
		c0.531,4.102,0.102,8.032-0.855,11.51c-1.012,3.463-2.566,6.439-4.27,8.836c-1.709,2.401-3.571,4.214-5.217,5.545
		c-0.207,0.167-0.397,0.344-0.6,0.489c-0.203,0.147-0.4,0.291-0.592,0.429c-0.385,0.273-0.732,0.553-1.08,0.774
		s-0.672,0.424-0.967,0.61c-0.299,0.184-0.561,0.366-0.816,0.492c-1.008,0.539-1.543,0.827-1.543,0.827s0.547-0.266,1.574-0.766
		c0.26-0.115,0.532-0.288,0.836-0.46c0.305-0.175,0.639-0.368,0.998-0.575c0.36-0.209,0.719-0.474,1.116-0.736
		c0.197-0.134,0.4-0.271,0.609-0.415c0.211-0.141,0.406-0.313,0.619-0.475c1.699-1.292,3.637-3.069,5.443-5.458
		c1.805-2.38,3.486-5.372,4.589-8.909c0.123-0.445,0.247-0.897,0.37-1.352c0.059-0.229,0.135-0.455,0.18-0.689
		c0.047-0.234,0.092-0.469,0.139-0.705c0.088-0.473,0.199-0.948,0.268-1.433c0.059-0.487,0.119-0.979,0.18-1.475
		c0.076-0.495,0.078-0.999,0.105-1.506c0.009-0.253,0.021-0.508,0.033-0.764l0.018-0.385L61.242,31.613z"/>
</g>
</svg>
