<?xml version="1.0" encoding="utf-8"?>
<!-- Generator: Adobe Illustrator 16.0.0, SVG Export Plug-In . SVG Version: 6.00 Build 0)  -->
<!DOCTYPE svg PUBLIC "-//W3C//DTD SVG 1.1//EN" "http://www.w3.org/Graphics/SVG/1.1/DTD/svg11.dtd">
<svg version="1.1" id="Layer_1" xmlns="http://www.w3.org/2000/svg" xmlns:xlink="http://www.w3.org/1999/xlink" x="0px" y="0px"
	 width="64px" height="64px" viewBox="0 0 64 64" style="enable-background:new 0 0 64 64;" xml:space="preserve">
<style type="text/css">
<![CDATA[
	.st0{fill:#7E459A;}
	.st1{fill:#14B690;}
	.st2{fill:#E5E53E;}
	.st3{fill:#4D4D4D;}
	.st4{fill:#E9CC2B;}
	.st5{fill:none;stroke:#002A6A;stroke-width:2;stroke-miterlimit:10;}
	.st6{fill:#1B75BB;}
	.st7{fill:#1D9178;}
	.st8{fill:#ED8121;}
	.st9{fill:#50C0B4;}
	.st10{fill:#5495CF;}
	.st11{fill:#56BFA0;}
	.st12{fill:#F05A28;}
	.st13{fill:#F0820A;}
	.st14{fill:#F15A24;}
	.st15{fill:#F16522;}
	.st16{fill:#F48331;}
	.st17{fill:#F89E38;}
	.st18{fill:#927D00;}
	.st19{fill:#C7B299;}
	.st20{fill:#FBB03B;}
	.st21{fill:#FDC010;}
	.st22{fill:#FFBE13;}
	.st23{fill:#FFD700;}
	.st24{fill:#FFFFFF;}
	.st25{fill:#333333;}
	.st26{fill:#39B54A;}
	.st27{fill:#002A6A;}
	.st28{fill:#003964;}
	.st29{fill:#009245;}
	.st30{fill:#D3DE46;}
	.st31{fill:#D44327;}
	.st32{fill:#D76F34;}
	.st33{fill:#3FA7F3;}
	.st34{fill:#A34F9D;}
	.st35{fill:#0A64AA;}
	.st36{fill:#76327E;}
	.st37{fill:#DA5222;}
	.st38{fill:#A74B89;}
	.st39{fill:#404041;}
]]>
</style>
<g>
	<g>
		<g>
			<path class="st39" d="M32,2.915C15.936,2.915,2.914,15.937,2.914,32c0,16.064,13.021,29.084,29.086,29.084
				c16.062,0,29.083-13.021,29.083-29.084C61.083,15.937,48.062,2.915,32,2.915z"/>
		</g>
	</g>
	<g>
		<g>
			<path class="st14" d="M32,0C14.355,0,0,14.356,0,32c0,17.645,14.355,32,32,32s32-14.355,32-32C64,14.356,49.645,0,32,0z
				 M32,62.834C14.998,62.834,1.166,49.002,1.166,32C1.166,14.998,14.998,1.166,32,1.166c17.001,0,30.833,13.832,30.833,30.834
				C62.833,49.002,49.001,62.834,32,62.834z"/>
		</g>
	</g>
	<g>
		<path class="st12" d="M24.167,39.378v6.783H13.535V17.831H24.43c2.34,0,4.4,0.372,6.186,1.118c1.781,0.744,3.27,1.755,4.466,3.032
			c0.436,0.464,0.833,0.957,1.19,1.478l-5.807,5.807c-0.029-0.102-0.059-0.202-0.092-0.303c-0.291-0.903-0.71-1.676-1.255-2.314
			c-0.545-0.638-1.217-1.138-2.016-1.497c-0.797-0.358-1.689-0.539-2.672-0.539h-3.113v14.764H24.167z"/>
	</g>
	<g>
		<polygon class="st24" points="52.248,46.17 43.311,46.17 36.139,35.533 34.135,37.54 34.135,46.17 26.352,46.17 26.352,36.542 
			45.057,17.838 53.833,17.84 41.203,30.469 		"/>
	</g>
</g>
</svg>
