<?xml version="1.0" encoding="utf-8"?>
<!-- Generator: Adobe Illustrator 16.0.0, SVG Export Plug-In . SVG Version: 6.00 Build 0)  -->
<!DOCTYPE svg PUBLIC "-//W3C//DTD SVG 1.1//EN" "http://www.w3.org/Graphics/SVG/1.1/DTD/svg11.dtd">
<svg version="1.1" id="Layer_1" xmlns="http://www.w3.org/2000/svg" xmlns:xlink="http://www.w3.org/1999/xlink" x="0px" y="0px"
	 width="64px" height="64px" viewBox="0 0 64 64" style="enable-background:new 0 0 64 64;" xml:space="preserve">
<style type="text/css">
<![CDATA[
	.st0{fill:#7E459A;}
	.st1{fill:#14B690;}
	.st2{fill:#E5E53E;}
	.st3{fill:#4D4D4D;}
	.st4{fill:#E9CC2B;}
	.st5{fill:none;stroke:#002A6A;stroke-width:2;stroke-miterlimit:10;}
	.st6{fill:#1B75BB;}
	.st7{fill:#1D9178;}
	.st8{fill:#ED8121;}
	.st9{fill:#50C0B4;}
	.st10{fill:#5495CF;}
	.st11{fill:#56BFA0;}
	.st12{fill:#F05A28;}
	.st13{fill:#F0820A;}
	.st14{fill:#F15A24;}
	.st15{fill:#F16522;}
	.st16{fill:#F48331;}
	.st17{fill:#F89E38;}
	.st18{fill:#927D00;}
	.st19{fill:#C7B299;}
	.st20{fill:#FBB03B;}
	.st21{fill:#FDC010;}
	.st22{fill:#FFBE13;}
	.st23{fill:#FFD700;}
	.st24{fill:#FFFFFF;}
	.st25{fill:#333333;}
	.st26{fill:#39B54A;}
	.st27{fill:#002A6A;}
	.st28{fill:#003964;}
	.st29{fill:#009245;}
	.st30{fill:#D3DE46;}
	.st31{fill:#D44327;}
	.st32{fill:#D76F34;}
	.st33{fill:#3FA7F3;}
	.st34{fill:#A34F9D;}
	.st35{fill:#0A64AA;}
	.st36{fill:#76327E;}
	.st37{fill:#DA5222;}
	.st38{fill:#A74B89;}
	.st39{fill:#404041;}
]]>
</style>
<g>
	<g id="XMLID_6_">
		<path class="st33" d="M64,32c0,17.669-14.326,32-32,32C14.324,64,0,49.669,0,32C0,14.325,14.324,0,32,0C49.674,0,64,14.325,64,32z
			"/>
	</g>
	<g>
		<g>
			<path class="st35" d="M11.678,56.719c0.016-4.053,1.08-8.029,3.082-11.5c0.131-0.225,0.143-0.5,0.033-0.743l-2.869-6.157v-4.788
				c0.932-0.331,1.604-1.212,1.604-2.262c0-1.332-1.078-2.406-2.408-2.406c-1.332,0-2.411,1.075-2.411,2.406
				c0,1.05,0.672,1.931,1.61,2.262V38.5c0,0.113,0.02,0.231,0.074,0.338l2.77,5.943c-1.791,3.228-2.834,6.843-3.051,10.559
				C10.619,55.816,11.141,56.276,11.678,56.719z"/>
		</g>
		<g>
			<path class="st35" d="M31.197,24.844c0-2.219-1.802-4.012-4.016-4.012c-2.219,0-4.016,1.793-4.016,4.012
				c0,1.944,1.381,3.563,3.213,3.938v4.9c0,0.12,0.023,0.232,0.07,0.337l6.561,14.063c-2.948,2.788-4.932,7.262-5.223,11.856
				c-0.07,1.122-0.053,2.408,0.135,3.806c0.547,0.068,1.096,0.124,1.65,0.166c-0.227-1.432-0.254-2.743-0.186-3.872
				c0.281-4.406,2.244-8.675,5.125-11.144c0.273-0.237,0.357-0.625,0.207-0.949L27.984,33.5v-4.719
				C29.816,28.407,31.197,26.788,31.197,24.844z"/>
		</g>
		<g>
			<path class="st35" d="M23.297,45.65c0.14-0.231,0.156-0.519,0.041-0.763c-0.062-0.125-3.625-7.763-4.188-8.974v-4.757
				c1.381-0.355,2.408-1.6,2.408-3.1c0-1.775-1.438-3.212-3.211-3.212c-1.775,0-3.217,1.438-3.217,3.212
				c0,1.5,1.031,2.745,2.412,3.1v4.932c0,0.118,0.026,0.23,0.077,0.343c2.381,5.101,3.512,7.525,4.141,8.662
				c-3.229,5.455-3.617,10.92-2.508,16.265c0.582,0.253,1.174,0.491,1.774,0.71C19.689,56.635,19.945,51.151,23.297,45.65z
				 M16.738,28.056c0-0.881,0.725-1.605,1.609-1.605c0.883,0,1.605,0.724,1.605,1.605c0,0.888-0.723,1.607-1.605,1.607
				C17.463,29.664,16.738,28.944,16.738,28.056z"/>
		</g>
		<g>
			<path class="st35" d="M50.469,28.863v-4.9c2.725-0.394,4.818-2.712,4.818-5.543c0-3.1-2.52-5.618-5.625-5.618
				c-3.101,0-5.62,2.518-5.62,5.618c0,2.831,2.1,5.15,4.819,5.543v4.719c-0.393,0.85-2.211,4.744-2.246,4.825
				c-0.188,0.394-0.021,0.875,0.379,1.062c2.923,1.413,4.35,3.845,4.35,7.438c0,4.2-3.057,6.957-6.6,10.15
				c-3.37,3.033-7.077,6.396-8.579,11.574c0.594-0.078,1.184-0.172,1.77-0.282c1.493-4.326,4.725-7.251,7.887-10.104
				c3.666-3.3,7.127-6.425,7.127-11.337c0-3.931-1.549-6.8-4.588-8.531c0.414-0.801,1.031-2.125,2.031-4.275
				C50.443,29.094,50.469,28.982,50.469,28.863z"/>
		</g>
		<g>
			<path class="st35" d="M36.818,26.369v4.9c0,0.119,0.025,0.231,0.072,0.344l3.457,7.4c-0.995,0.737-1.648,1.906-1.648,3.23
				c0,2.213,1.801,4.013,4.02,4.013c2.213,0,4.012-1.8,4.012-4.013c0-2.219-1.799-4.018-4.012-4.018
				c-0.318,0-0.619,0.043-0.92,0.113l-3.375-7.245v-4.725c2.275-0.382,4.013-2.351,4.013-4.738c0-2.663-2.155-4.819-4.817-4.819
				c-2.661,0-4.82,2.156-4.82,4.819C32.799,24.019,34.541,25.987,36.818,26.369z M42.719,39.832c1.324,0,2.406,1.082,2.406,2.412
				c0,1.325-1.082,2.407-2.406,2.407c-1.338,0-2.412-1.082-2.412-2.407C40.307,40.914,41.381,39.832,42.719,39.832z M37.619,18.419
				c1.773,0,3.214,1.444,3.214,3.212c0,1.775-1.441,3.212-3.214,3.212c-1.771,0-3.213-1.437-3.213-3.212
				C34.406,19.863,35.848,18.419,37.619,18.419z"/>
		</g>
	</g>
</g>
</svg>
