<?xml version="1.0" encoding="utf-8"?>
<!-- Generator: Adobe Illustrator 16.0.0, SVG Export Plug-In . SVG Version: 6.00 Build 0)  -->
<!DOCTYPE svg PUBLIC "-//W3C//DTD SVG 1.1//EN" "http://www.w3.org/Graphics/SVG/1.1/DTD/svg11.dtd">
<svg version="1.1" id="Layer_1" xmlns="http://www.w3.org/2000/svg" xmlns:xlink="http://www.w3.org/1999/xlink" x="0px" y="0px"
	 width="64px" height="64px" viewBox="0 0 64 64" style="enable-background:new 0 0 64 64;" xml:space="preserve">
<style type="text/css">
<![CDATA[
	.st0{fill:#7E459A;}
	.st1{fill:#14B690;}
	.st2{fill:#E5E53E;}
	.st3{fill:#4D4D4D;}
	.st4{fill:#E9CC2B;}
	.st5{fill:none;stroke:#002A6A;stroke-width:2;stroke-miterlimit:10;}
	.st6{fill:#1B75BB;}
	.st7{fill:#1D9178;}
	.st8{fill:#ED8121;}
	.st9{fill:#50C0B4;}
	.st10{fill:#5495CF;}
	.st11{fill:#56BFA0;}
	.st12{fill:#F05A28;}
	.st13{fill:#F0820A;}
	.st14{fill:#F15A24;}
	.st15{fill:#F16522;}
	.st16{fill:#F48331;}
	.st17{fill:#F89E38;}
	.st18{fill:#927D00;}
	.st19{fill:#C7B299;}
	.st20{fill:#FBB03B;}
	.st21{fill:#FDC010;}
	.st22{fill:#FFBE13;}
	.st23{fill:#FFD700;}
	.st24{fill:#FFFFFF;}
	.st25{fill:#333333;}
	.st26{fill:#39B54A;}
	.st27{fill:#002A6A;}
	.st28{fill:#003964;}
	.st29{fill:#009245;}
	.st30{fill:#D3DE46;}
	.st31{fill:#D44327;}
	.st32{fill:#D76F34;}
	.st33{fill:#3FA7F3;}
	.st34{fill:#A34F9D;}
	.st35{fill:#0A64AA;}
	.st36{fill:#76327E;}
	.st37{fill:#DA5222;}
	.st38{fill:#A74B89;}
	.st39{fill:#404041;}
]]>
</style>
<g>
	<g>
		<g>
			<path class="st6" d="M32,0C14.326,0,0,14.327,0,32s14.326,32,32,32s32-14.327,32-32S49.674,0,32,0z"/>
		</g>
	</g>
	<g>
		<path class="st28" d="M32,9.229c12.576,0,22.771,10.195,22.771,22.771c0,12.576-10.195,22.771-22.771,22.771
			S9.229,44.576,9.229,32C9.229,19.423,19.424,9.229,32,9.229 M32,6.4C17.885,6.4,6.4,17.885,6.4,32c0,14.116,11.484,25.6,25.6,25.6
			S57.6,46.116,57.6,32C57.6,17.885,46.115,6.4,32,6.4L32,6.4z"/>
		<g>
			<path class="st28" d="M34.838,12.405c2.408,1.958,3.951,4.942,3.951,8.281l0,0h4.525v2.828h-1.979L35.395,32l5.941,8.487h1.979
				v2.828h-7.354v-2.828h1.979L32,32l-5.939,8.486h1.979v0.001v2.828c0,4.332,3.512,7.841,7.842,7.841
				c0.779,0,1.531-0.117,2.242-0.328C46.061,48.249,51.801,40.798,51.801,32C51.801,22.029,44.43,13.781,34.838,12.405z"/>
			<path class="st28" d="M35.961,23.513L35.961,23.513v-2.828l0,0c0-4.331-3.512-7.841-7.842-7.841
				c-0.779,0-1.533,0.116-2.245,0.328C17.938,15.753,12.199,23.203,12.199,32c0,9.972,7.371,18.219,16.963,19.595
				c-2.408-1.958-3.951-4.941-3.951-8.28h-4.525v-2.828h1.979L28.605,32l-5.941-8.487h-1.979v-2.828h7.354v2.828h-1.98L32,32
				l5.939-8.487H35.961z"/>
		</g>
	</g>
</g>
</svg>
