<?xml version="1.0" encoding="utf-8"?>
<!-- Generator: Adobe Illustrator 16.0.0, SVG Export Plug-In . SVG Version: 6.00 Build 0)  -->
<!DOCTYPE svg PUBLIC "-//W3C//DTD SVG 1.1//EN" "http://www.w3.org/Graphics/SVG/1.1/DTD/svg11.dtd">
<svg version="1.1" id="Layer_1" xmlns="http://www.w3.org/2000/svg" xmlns:xlink="http://www.w3.org/1999/xlink" x="0px" y="0px"
	 width="64px" height="64px" viewBox="0 0 64 64" style="enable-background:new 0 0 64 64;" xml:space="preserve">
<style type="text/css">
<![CDATA[
	.st0{fill:#7E459A;}
	.st1{fill:#14B690;}
	.st2{fill:#E5E53E;}
	.st3{fill:#4B4B4B;}
	.st4{fill:#4D4D4D;}
	.st5{fill:#E9CC2B;}
	.st6{fill:none;stroke:#002A6A;stroke-width:2;stroke-miterlimit:10;}
	.st7{fill:#1B75BB;}
	.st8{fill:#1D9178;}
	.st9{fill:#ED8121;}
	.st10{fill:#50C0B4;}
	.st11{fill:#56BFA0;}
	.st12{fill:#F05A28;}
	.st13{fill:#F0820A;}
	.st14{fill:#222222;}
	.st15{fill:#F15A24;}
	.st16{fill:#F16522;}
	.st17{fill:#F48331;}
	.st18{fill:#F89E38;}
	.st19{fill:#927D00;}
	.st20{fill:url(#SVGID_1_);}
	.st21{fill:#C7B299;}
	.st22{fill:#FBB03B;}
	.st23{fill:#FFBE13;}
	.st24{fill:#FFD700;}
	.st25{fill:#FFD900;}
	.st26{fill:#FFFFFF;}
	.st27{fill:#333333;}
	.st28{fill:#39B54A;}
	.st29{fill:#002A6A;}
	.st30{fill:#003964;}
	.st31{fill:#009245;}
	.st32{fill:#D3DE46;}
	.st33{fill:#D44327;}
	.st34{fill:#D76F34;}
	.st35{fill:#3FA7F3;}
	.st36{fill:#A34F9D;}
	.st37{fill:#0A64AA;}
	.st38{fill:#76327E;}
	.st39{fill:#DA5222;}
	.st40{fill:#A74B89;}
	.st41{fill:#404041;}
]]>
</style>
<path class="st14" d="M64,10c0-5.5-4.5-10-10-10c-3,0-5.7,1.3-7.5,3.5C42.1,1.2,37.2,0,32,0C14.3,0,0,14.3,0,32s14.3,32,32,32
	s32-14.3,32-32c0-5.2-1.2-10.1-3.5-14.5C62.7,15.7,64,13,64,10z"/>
<g>
	<polygon class="st25" points="51.9,14 58.4,10 51.9,6 	"/>
	<path class="st25" d="M54,2c-4.4,0-8,3.6-8,8c0,4.4,3.6,8,8,8c4.4,0,8-3.6,8-8C62,5.6,58.4,2,54,2z M54,17c-3.9,0-7-3.1-7-7
		c0-3.9,3.1-7,7-7c3.9,0,7,3.1,7,7C61,13.9,57.9,17,54,17z"/>
</g>
<g>
	<path class="st25" d="M54.1,31.1c-0.4-0.5-9.3-11.6-22.1-11.6c-12.8,0-21.7,11.2-22.1,11.6L9.2,32l0.7,0.9
		c0.4,0.5,9.3,11.6,22.1,11.6s21.7-11.2,22.1-11.6l0.7-0.9L54.1,31.1z M12.8,32c1.8-1.9,6.4-6.5,12.7-8.6c-2.7,2-4.3,5.1-4.3,8.6
		c0,3.5,1.7,6.6,4.3,8.6C19.3,38.5,14.6,33.9,12.8,32z M32,39.1c-3.9,0-7.1-3.2-7.1-7.1c0-3.9,3.2-7.1,7.1-7.1
		c3.9,0,7.1,3.2,7.1,7.1C39.1,35.9,35.9,39.1,32,39.1z M38.4,40.6c2.7-2,4.3-5.1,4.3-8.6c0-3.5-1.7-6.6-4.3-8.6
		c6.3,2.1,11,6.7,12.7,8.6C49.4,33.9,44.7,38.5,38.4,40.6z"/>
	<path class="st25" d="M32,29.8c-1.2,0-2.2,1-2.2,2.2c0,1.2,1,2.2,2.2,2.2c1.2,0,2.2-1,2.2-2.2C34.2,30.8,33.2,29.8,32,29.8z"/>
</g>
</svg>
