<?xml version="1.0" encoding="utf-8"?>
<!-- Generator: Adobe Illustrator 16.0.0, SVG Export Plug-In . SVG Version: 6.00 Build 0)  -->
<!DOCTYPE svg PUBLIC "-//W3C//DTD SVG 1.1//EN" "http://www.w3.org/Graphics/SVG/1.1/DTD/svg11.dtd">
<svg version="1.1" id="Layer_1" xmlns="http://www.w3.org/2000/svg" xmlns:xlink="http://www.w3.org/1999/xlink" x="0px" y="0px"
	 width="64px" height="64px" viewBox="0 0 64 64" style="enable-background:new 0 0 64 64;" xml:space="preserve">
<style type="text/css">
<![CDATA[
	.st0{fill:#7E459A;}
	.st1{fill:#14B690;}
	.st2{fill:#E5E53E;}
	.st3{fill:#4D4D4D;}
	.st4{fill:#E9CC2B;}
	.st5{fill:none;stroke:#002A6A;stroke-width:2;stroke-miterlimit:10;}
	.st6{fill:#1B75BB;}
	.st7{fill:#1D9178;}
	.st8{fill:#ED8121;}
	.st9{fill:#50C0B4;}
	.st10{fill:#5495CF;}
	.st11{fill:#56BFA0;}
	.st12{fill:#F05A28;}
	.st13{fill:#F0820A;}
	.st14{fill:#F15A24;}
	.st15{fill:#F16522;}
	.st16{fill:#F48331;}
	.st17{fill:#F89E38;}
	.st18{fill:#927D00;}
	.st19{fill:#C7B299;}
	.st20{fill:#FBB03B;}
	.st21{fill:#FDC010;}
	.st22{fill:#FFBE13;}
	.st23{fill:#FFD700;}
	.st24{fill:#FFFFFF;}
	.st25{fill:#333333;}
	.st26{fill:#39B54A;}
	.st27{fill:#002A6A;}
	.st28{fill:#003964;}
	.st29{fill:#009245;}
	.st30{fill:#D3DE46;}
	.st31{fill:#D44327;}
	.st32{fill:#D76F34;}
	.st33{fill:#3FA7F3;}
	.st34{fill:#A34F9D;}
	.st35{fill:#0A64AA;}
	.st36{fill:#76327E;}
	.st37{fill:#DA5222;}
	.st38{fill:#A74B89;}
	.st39{fill:#404041;}
]]>
</style>
<g>
	<g>
		<circle class="st13" cx="32" cy="32" r="32"/>
	</g>
	<g>
		<path class="st24" d="M50.875,49.308l-7.089-7.085c6.139-6.953,5.902-17.596-0.745-24.241c-6.908-6.91-18.15-6.91-25.058,0
			c-6.91,6.907-6.91,18.152,0,25.06c6.644,6.646,17.285,6.88,24.238,0.744l7.086,7.088c0.432,0.434,1.133,0.434,1.566,0
			C51.309,50.442,51.309,49.743,50.875,49.308z M41.475,41.475c-6.045,6.048-15.879,6.048-21.928,0
			c-6.045-6.043-6.045-15.881,0-21.925c6.049-6.047,15.883-6.047,21.93,0C47.521,25.593,47.521,35.431,41.475,41.475z"/>
		<path class="st24" d="M22.699,21.504c-0.434-0.432-1.135-0.432-1.568,0c-2.404,2.403-3.727,5.602-3.727,9.009
			c0,3.408,1.324,6.604,3.727,9.006c0.434,0.434,1.135,0.434,1.568,0c0.434-0.432,0.434-1.135,0-1.568
			c-1.982-1.982-3.077-4.624-3.077-7.438s1.094-5.456,3.077-7.44C23.133,22.642,23.133,21.938,22.699,21.504z"/>
	</g>
</g>
</svg>
