<svg id="Layer_1" data-name="Layer 1" xmlns="http://www.w3.org/2000/svg" viewBox="0 0 64 64"><defs><style>.cls-1{fill:#fff;}.cls-2{fill:#550016;}</style></defs><title>new</title><circle class="cls-1" cx="32" cy="32" r="32"/><path class="cls-2" d="M46.56,38.46a7.06,7.06,0,0,1,.64,7.14,6.29,6.29,0,0,1-10.8.7,6.35,6.35,0,0,1-.76-5.47c1.81-5.59,8-3.25,11.78-10.26A13.25,13.25,0,0,0,49,24.3,21,21,0,0,0,48.08,18l-.31-1-1.13.13a23.47,23.47,0,0,0-4.91,1.08,18,18,0,0,0-4.6,2.24,11,11,0,0,0-3.61,4.07,12.94,12.94,0,0,0-1-1.22,23.79,23.79,0,0,0-7.09-4.95,32.2,32.2,0,0,0-8-2.6l-1.76-.35L14.85,17a33.24,33.24,0,0,0-1.66,4.46,31.07,31.07,0,0,0-1,4.61,21.37,21.37,0,0,0,.67,9.66,14.33,14.33,0,0,0,1,2.33c.54.93.85,1.31,1.29,2a18.25,18.25,0,0,0,3.61,3.5,27.26,27.26,0,0,0,8.39,4l1.35.41.32-1.25a22.74,22.74,0,0,0,.65-5.26,18.88,18.88,0,0,0-.6-5.24,10.48,10.48,0,0,0-2.52-4.62,9.12,9.12,0,0,0-4.49-2.41,8.91,8.91,0,0,1,5.61,7.33,20,20,0,0,1-.72,7.95,26.44,26.44,0,0,1-5.83-3.61A16.6,16.6,0,0,1,18.35,38c-.32-.58-.82-1.42-1-1.78a15.24,15.24,0,0,1-.61-1.76,17.14,17.14,0,0,1-.13-7.75,34.84,34.84,0,0,1,1-4c.21-.66.45-1.33.71-2a35,35,0,0,1,5.09,1.81,18.87,18.87,0,0,1,5.79,3.86,12.36,12.36,0,0,1,2,2.68A9.9,9.9,0,0,1,32.33,32a26.34,26.34,0,0,1,.06,7.23c-.09,1.32-.15,2.68-.13,4.16a8.49,8.49,0,0,0,6.48,8.13,8.4,8.4,0,0,0,9.68-5.49A7.32,7.32,0,0,0,46.56,38.46Zm-8.45-8.55a6.07,6.07,0,0,1,2.72-2.86,5.56,5.56,0,0,1,1.89-.3c-3.84-1.24-6.56,2.69-6.56,2.69,0-.16-1.87-6.45,9.68-9.39,1,3.15,1.43,6.75,0,9.64-.19.38-.47.78-.68,1.11a9.17,9.17,0,0,1-.92,1.13,7.67,7.67,0,0,1-2.19,1.7,8.24,8.24,0,0,1-5.27.76A24.81,24.81,0,0,1,38.11,29.91Z"/></svg>