<?xml version="1.0" encoding="utf-8"?>
<!-- Generator: Adobe Illustrator 16.0.0, SVG Export Plug-In . SVG Version: 6.00 Build 0)  -->
<!DOCTYPE svg PUBLIC "-//W3C//DTD SVG 1.1//EN" "http://www.w3.org/Graphics/SVG/1.1/DTD/svg11.dtd">
<svg version="1.1" id="Layer_1" xmlns="http://www.w3.org/2000/svg" xmlns:xlink="http://www.w3.org/1999/xlink" x="0px" y="0px"
	 width="64px" height="64px" viewBox="0 0 64 64" style="enable-background:new 0 0 64 64;" xml:space="preserve">
<style type="text/css">
<![CDATA[
	.st0{fill:#7E459A;}
	.st1{fill:#14B690;}
	.st2{fill:#E5E53E;}
	.st3{fill:#4D4D4D;}
	.st4{fill:#E9CC2B;}
	.st5{fill:none;stroke:#002A6A;stroke-width:2;stroke-miterlimit:10;}
	.st6{fill:#1B75BB;}
	.st7{fill:#1D9178;}
	.st8{fill:#ED8121;}
	.st9{fill:#50C0B4;}
	.st10{fill:#5495CF;}
	.st11{fill:#56BFA0;}
	.st12{fill:#F05A28;}
	.st13{fill:#F0820A;}
	.st14{fill:#F15A24;}
	.st15{fill:#F16522;}
	.st16{fill:#F48331;}
	.st17{fill:#F89E38;}
	.st18{fill:#927D00;}
	.st19{fill:#C7B299;}
	.st20{fill:#FBB03B;}
	.st21{fill:#FDC010;}
	.st22{fill:#FFBE13;}
	.st23{fill:#FFD700;}
	.st24{fill:#FFFFFF;}
	.st25{fill:#333333;}
	.st26{fill:#39B54A;}
	.st27{fill:#002A6A;}
	.st28{fill:#003964;}
	.st29{fill:#009245;}
	.st30{fill:#D3DE46;}
	.st31{fill:#D44327;}
	.st32{fill:#D76F34;}
	.st33{fill:#3FA7F3;}
	.st34{fill:#A34F9D;}
	.st35{fill:#0A64AA;}
	.st36{fill:#76327E;}
	.st37{fill:#DA5222;}
	.st38{fill:#A74B89;}
	.st39{fill:#404041;}
]]>
</style>
<g>
	<g>
		<circle class="st24" cx="32" cy="32" r="32"/>
	</g>
	<g>
		<path class="st29" d="M22.111,20.345c0.318,2.136-0.078,4.925-0.791,7.789c1.461,1.486,3.072,2.925,4.602,4.205
			c0.781-3.199,1.104-6.358,0.447-8.887C25.939,21.792,23.893,20.403,22.111,20.345z"/>
		<path class="st29" d="M42.68,28.133c-0.715-2.863-1.109-5.653-0.791-7.789c-1.783,0.058-3.828,1.447-4.258,3.106
			c-0.656,2.529-0.334,5.688,0.447,8.887C39.607,31.058,41.217,29.62,42.68,28.133z"/>
		<path class="st26" d="M45.357,19.616c2.729,0.731,4.726,2.823,5.463,5.35c0.854-3.994-1.114-7.87-4.541-8.788
			c-3.43-0.918-7.071,1.453-8.328,5.34C39.852,19.697,42.629,18.885,45.357,19.616z"/>
		<path class="st26" d="M50.131,26.801c0.457-1.653-0.619-3.877-2.135-4.819C45.333,28.737,32,37.83,32,37.83
			s-13.336-9.093-15.999-15.848c-1.513,0.941-2.589,3.166-2.134,4.819C16.232,35.353,32,44.549,32,44.549
			S47.768,35.353,50.131,26.801z"/>
		<path class="st29" d="M54.4,43.734c-3.75-1.956-6.903-4.9-9.113-8.484c-1.256,1.263-2.715,2.564-4.372,3.896
			c2.276,3.722,5.508,6.794,9.356,8.875l0.031-0.031l-0.338-3.867L54.4,43.734z"/>
		<path class="st26" d="M18.643,19.616c2.729-0.731,5.506,0.081,7.406,1.902c-1.258-3.887-4.898-6.259-8.328-5.34
			c-3.43,0.918-5.395,4.794-4.543,8.788C13.914,22.438,15.914,20.347,18.643,19.616z"/>
		<path class="st29" d="M9.6,43.734l4.436,0.387l-0.338,3.867l0.031,0.031c3.848-2.08,7.078-5.153,9.355-8.875
			c-1.656-1.332-3.115-2.632-4.371-3.896C16.501,38.834,13.35,41.778,9.6,43.734z"/>
	</g>
</g>
</svg>
