<?xml version="1.0" encoding="utf-8"?>
<!-- Generator: Adobe Illustrator 16.0.0, SVG Export Plug-In . SVG Version: 6.00 Build 0)  -->
<!DOCTYPE svg PUBLIC "-//W3C//DTD SVG 1.1//EN" "http://www.w3.org/Graphics/SVG/1.1/DTD/svg11.dtd">
<svg version="1.1" id="Layer_1" xmlns="http://www.w3.org/2000/svg" xmlns:xlink="http://www.w3.org/1999/xlink" x="0px" y="0px"
	 width="64px" height="64px" viewBox="0 0 64 64" style="enable-background:new 0 0 64 64;" xml:space="preserve">
<style type="text/css">
<![CDATA[
	.st0{fill:#7E459A;}
	.st1{fill:#14B690;}
	.st2{fill:#E5E53E;}
	.st3{fill:#4D4D4D;}
	.st4{fill:#E9CC2B;}
	.st5{fill:none;stroke:#002A6A;stroke-width:2;stroke-miterlimit:10;}
	.st6{fill:#1B75BB;}
	.st7{fill:#1D9178;}
	.st8{fill:#ED8121;}
	.st9{fill:#50C0B4;}
	.st10{fill:#5495CF;}
	.st11{fill:#56BFA0;}
	.st12{fill:#F05A28;}
	.st13{fill:#F0820A;}
	.st14{fill:#F15A24;}
	.st15{fill:#F16522;}
	.st16{fill:#F48331;}
	.st17{fill:#F89E38;}
	.st18{fill:#927D00;}
	.st19{fill:#C7B299;}
	.st20{fill:#FBB03B;}
	.st21{fill:#FDC010;}
	.st22{fill:#FFBE13;}
	.st23{fill:#FFD700;}
	.st24{fill:#FFFFFF;}
	.st25{fill:#333333;}
	.st26{fill:#39B54A;}
	.st27{fill:#002A6A;}
	.st28{fill:#003964;}
	.st29{fill:#009245;}
	.st30{fill:#D3DE46;}
	.st31{fill:#D44327;}
	.st32{fill:#D76F34;}
	.st33{fill:#3FA7F3;}
	.st34{fill:#A34F9D;}
	.st35{fill:#0A64AA;}
	.st36{fill:#76327E;}
	.st37{fill:#DA5222;}
	.st38{fill:#A74B89;}
	.st39{fill:#404041;}
]]>
</style>
<g>
	<g>
		<g>
			<circle class="st23" cx="32" cy="32" r="32"/>
		</g>
	</g>
	<g>
		<path class="st25" d="M16.131,15.757l7.91,20.929l7.909-20.929h14.225v5.274h-4.215v6.238l6.334-6.238h-1.06v-5.274h8.551
			C50.596,8.177,41.879,3.2,32,3.2c-9.881,0-18.596,4.977-23.785,12.557H16.131z"/>
		<path class="st25" d="M48.387,48.243V42.97h1.059l-6.096-8.333l-1.391,1.436v6.897h4.215v5.273H30.891V42.97c0,0,4.002,0,3.955,0
			l-0.824-13.206l-6.897,18.479h-6.168l-6.898-18.479L13.234,42.97c-0.047,0,3.955,0,3.955,0v5.273H8.215
			C13.404,55.824,22.119,60.801,32,60.801c9.879,0,18.596-4.977,23.783-12.558H48.387z"/>
		<path class="st25" d="M58.635,21.031h-1.898l-8.28,8.851l9.741,13.088h0.438c1.395-3.381,2.164-7.085,2.164-10.97
			S60.029,24.411,58.635,21.031z"/>
		<path class="st25" d="M6.111,42.97L7.82,21.031H5.365C3.971,24.411,3.199,28.115,3.199,32s0.771,7.588,2.166,10.97H6.111z"/>
	</g>
</g>
</svg>
