<?xml version="1.0" encoding="utf-8"?>
<!-- Generator: Adobe Illustrator 16.0.0, SVG Export Plug-In . SVG Version: 6.00 Build 0)  -->
<!DOCTYPE svg PUBLIC "-//W3C//DTD SVG 1.1//EN" "http://www.w3.org/Graphics/SVG/1.1/DTD/svg11.dtd">
<svg version="1.1" id="Layer_1" xmlns="http://www.w3.org/2000/svg" xmlns:xlink="http://www.w3.org/1999/xlink" x="0px" y="0px"
	 width="64px" height="64px" viewBox="0 0 64 64" style="enable-background:new 0 0 64 64;" xml:space="preserve">
<style type="text/css">
<![CDATA[
	.st0{fill:#7E459A;}
	.st1{fill:#14B690;}
	.st2{fill:#E5E53E;}
	.st3{fill:#4B4B4B;}
	.st4{fill:#4D4D4D;}
	.st5{fill:#E9CC2B;}
	.st6{fill:none;stroke:#002A6A;stroke-width:2;stroke-miterlimit:10;}
	.st7{fill:#1B75BB;}
	.st8{fill:#1D9178;}
	.st9{fill:#ED8121;}
	.st10{fill:#50C0B4;}
	.st11{fill:#56BFA0;}
	.st12{fill:#F05A28;}
	.st13{fill:#F0820A;}
	.st14{fill:#F15A24;}
	.st15{fill:#F16522;}
	.st16{fill:#F48331;}
	.st17{fill:#F89E38;}
	.st18{fill:#927D00;}
	.st19{fill:url(#SVGID_1_);}
	.st20{fill:#C7B299;}
	.st21{fill:#FBB03B;}
	.st22{fill:#FDC010;}
	.st23{fill:#FFBE13;}
	.st24{fill:#FFD700;}
	.st25{fill:#FFFFFF;}
	.st26{fill:#333333;}
	.st27{fill:#39B54A;}
	.st28{fill:#002A6A;}
	.st29{fill:#003964;}
	.st30{fill:#009245;}
	.st31{fill:#D3DE46;}
	.st32{fill:#D44327;}
	.st33{fill:#D76F34;}
	.st34{fill:#3FA7F3;}
	.st35{fill:#A34F9D;}
	.st36{fill:#0A64AA;}
	.st37{fill:#76327E;}
	.st38{fill:#DA5222;}
	.st39{fill:#A74B89;}
	.st40{fill:#404041;}
]]>
</style>
<g>
	<path class="st25" d="M64,10c0-5.5-4.5-10-10-10c-3,0-5.7,1.3-7.5,3.5C42.1,1.2,37.2,0,32,0C14.3,0,0,14.3,0,32s14.3,32,32,32
		s32-14.3,32-32c0-5.2-1.2-10.1-3.5-14.5C62.7,15.7,64,13,64,10z"/>
	<g>
		<linearGradient id="SVGID_1_" gradientUnits="userSpaceOnUse" x1="12" y1="32" x2="52" y2="32">
			<stop  offset="0" style="stop-color:#4B4B4B"/>
			<stop  offset="1" style="stop-color:#C8C8C8"/>
		</linearGradient>
		<path class="st19" d="M52,32.7c0-0.2,0-0.5,0-0.7s0-0.5,0-0.7l-2.3-0.9c-0.1-0.7-0.1-1.3-0.3-2l2-1.5c-0.1-0.5-0.2-0.9-0.4-1.3
			l-2.5-0.2c-0.2-0.6-0.5-1.2-0.8-1.8l1.5-2c-0.2-0.4-0.5-0.8-0.8-1.2L46,21.1c-0.4-0.5-0.8-1-1.3-1.5l0.9-2.3
			c-0.3-0.3-0.7-0.6-1-0.9l-2.2,1.2c-0.5-0.4-1.1-0.8-1.7-1.1l0.2-2.5c-0.4-0.2-0.8-0.4-1.3-0.6l-1.7,1.8c-0.6-0.2-1.3-0.4-1.9-0.6
			l-0.5-2.4c-0.5-0.1-0.9-0.2-1.4-0.2L33,14.2c-0.3,0-0.7,0-1,0c-0.3,0-0.7,0-1,0L29.8,12c-0.5,0.1-0.9,0.1-1.4,0.2L28,14.6
			c-0.7,0.2-1.3,0.3-1.9,0.6l-1.7-1.8c-0.4,0.2-0.8,0.4-1.3,0.6l0.2,2.5c-0.6,0.3-1.1,0.7-1.7,1.1l-2.2-1.2c-0.4,0.3-0.7,0.6-1,0.9
			l0.9,2.3c-0.5,0.5-0.9,1-1.3,1.5l-2.4-0.5c-0.3,0.4-0.5,0.8-0.8,1.2l1.5,2c-0.3,0.6-0.6,1.2-0.8,1.8L13,25.7
			c-0.1,0.4-0.3,0.9-0.4,1.3l2,1.5c-0.1,0.6-0.2,1.3-0.3,2L12,31.3c0,0.2,0,0.5,0,0.7s0,0.5,0,0.7l2.3,0.9c0.1,0.7,0.1,1.3,0.3,2
			l-2,1.5c0.1,0.5,0.2,0.9,0.4,1.3l2.5,0.2c0.2,0.6,0.5,1.2,0.8,1.8l-1.5,2c0.2,0.4,0.5,0.8,0.8,1.2l2.4-0.5c0.4,0.5,0.8,1,1.3,1.5
			l-0.9,2.3c0.3,0.3,0.7,0.6,1,0.9l2.2-1.2c0.5,0.4,1.1,0.8,1.7,1.1L23.1,50c0.4,0.2,0.8,0.4,1.3,0.6l1.7-1.8
			c0.6,0.2,1.3,0.4,1.9,0.6l0.5,2.4c0.5,0.1,0.9,0.1,1.4,0.2l1.2-2.2c0.3,0,0.7,0,1,0s0.7,0,1,0l1.2,2.2c0.5-0.1,0.9-0.1,1.4-0.2
			l0.5-2.4c0.7-0.2,1.3-0.3,1.9-0.6l1.7,1.8c0.4-0.2,0.8-0.4,1.3-0.6l-0.2-2.5c0.6-0.3,1.1-0.7,1.7-1.1l2.2,1.2
			c0.4-0.3,0.7-0.6,1-0.9l-0.9-2.3c0.5-0.5,0.9-1,1.3-1.5l2.4,0.5c0.3-0.4,0.5-0.8,0.8-1.2l-1.5-2c0.3-0.6,0.6-1.2,0.8-1.8l2.5-0.2
			c0.1-0.4,0.3-0.9,0.4-1.3l-2-1.5c0.1-0.6,0.2-1.3,0.3-2L52,32.7z M32,48c-8.8,0-16-7.2-16-16c0-8.8,7.2-16,16-16
			c8.8,0,16,7.2,16,16C48,40.8,40.8,48,32,48z"/>
		<circle class="st25" cx="32" cy="32" r="16"/>
		<path class="st3" d="M24,20.9c0.2,0,0.1,0.2,0,0.3c-0.2,0.2-0.4,0.3-0.5,0.2C23.5,21.2,23.7,20.9,24,20.9z M24.9,18.3
			c0,0.1,0.2,0,0.4-0.2c0.1-0.1,0.2-0.2,0.1-0.2C25.2,18,24.9,18.2,24.9,18.3z M24,23.6c0.1-0.1,0.1-0.3-0.2-0.4
			c-0.3,0-0.5,0.3-0.4,0.5C23.5,24,23.9,23.9,24,23.6z M23.8,20.3c0,0.1,0.3,0,0.5-0.2c0.1-0.1,0.1-0.3,0-0.3
			C24.1,19.8,23.8,20.1,23.8,20.3z M24.3,19.2c0,0.1,0.2,0,0.4-0.2c0.1-0.1,0.2-0.2,0.1-0.3C24.6,18.8,24.3,19.1,24.3,19.2z
			 M24.6,20.2c0,0.2,0.3,0.1,0.5-0.2c0.1-0.1,0.1-0.3,0-0.3C24.9,19.8,24.6,20.1,24.6,20.2z M23.4,22.6c0.1,0.2,0.4,0.1,0.5-0.2
			C24,22.2,24,22,23.8,22C23.6,22.1,23.3,22.4,23.4,22.6z M26.2,31c0-0.2-0.1-0.4-0.4-0.4c-0.4,0-0.5,0.4-0.3,0.6
			C25.8,31.5,26.2,31.3,26.2,31z M24.2,25c0-0.1,0-0.4-0.2-0.4c-0.3,0-0.5,0.4-0.4,0.6C23.7,25.4,24.1,25.3,24.2,25z M26.4,27.9
			c0-0.2,0-0.4-0.3-0.4c-0.3,0-0.5,0.4-0.3,0.6C25.9,28.3,26.4,28.2,26.4,27.9z M25,27.9c0-0.2,0-0.4-0.3-0.4
			c-0.3,0-0.5,0.4-0.3,0.6C24.5,28.3,24.9,28.2,25,27.9z M24.5,26.4c0-0.2,0-0.4-0.3-0.4c-0.3,0-0.5,0.4-0.4,0.6
			C24,26.8,24.4,26.7,24.5,26.4z M25.6,29.4c0-0.2,0-0.4-0.3-0.4c-0.3,0-0.5,0.4-0.3,0.6C25.1,29.9,25.5,29.7,25.6,29.4z M27.3,17.5
			c0,0.1,0.2,0,0.4-0.1c0.1-0.1,0.2-0.2,0.1-0.2C27.5,17.2,27.3,17.4,27.3,17.5z M26.9,18.3c0,0.1,0.3,0,0.4-0.1
			c0.1-0.1,0.1-0.2,0-0.2C27.1,18,26.9,18.2,26.9,18.3z M27.6,18.3c0,0.1,0.3,0.1,0.4-0.1c0.1-0.1,0.1-0.2,0-0.2
			C27.9,18,27.6,18.2,27.6,18.3z M27.8,16.8c0,0.1,0.2,0,0.4-0.1c0,0,0.1,0,0.1-0.1c0,0,0.1-0.1,0-0.1
			C28.2,16.6,27.8,16.7,27.8,16.8z M26.7,17.5c0,0.1,0.2,0,0.4-0.1c0,0,0,0,0,0c0.1-0.1,0.2-0.2,0.1-0.2
			C27,17.2,26.7,17.4,26.7,17.5z M27.9,17.5c0,0.1,0.2,0,0.4-0.1c0.1-0.1,0.1-0.2,0-0.2C28.2,17.2,27.9,17.4,27.9,17.5z M26.1,18.3
			c0,0.1,0.3,0,0.4-0.1c0.1-0.1,0.2-0.2,0-0.2C26.4,18,26.1,18.2,26.1,18.3z M27.1,19.1c0.1-0.1,0.1-0.2-0.1-0.3
			c-0.2,0-0.4,0.2-0.4,0.4C26.6,19.4,26.9,19.3,27.1,19.1z M25.6,17.5c0,0.1,0.2,0,0.4-0.1c0,0,0.1-0.1,0.1-0.1
			c0.1,0,0.1-0.1,0.1-0.1C26,17.2,25.6,17.4,25.6,17.5z M25.5,18.3c0,0.1,0.2,0,0.4-0.1c0.1-0.1,0.2-0.2,0.1-0.2
			C25.8,18,25.5,18.2,25.5,18.3z M26.1,17.5c0,0.1,0.2,0,0.4-0.1c0,0,0,0,0.1-0.1c0,0,0.2-0.1,0.1-0.1
			C26.5,17.2,26.1,17.4,26.1,17.5z M25,19.2c0,0.1,0.3,0,0.4-0.2c0.1-0.1,0.2-0.2,0-0.3C25.2,18.8,25,19.1,25,19.2z M28.6,29.4
			c0-0.2-0.1-0.4-0.4-0.4c-0.4,0-0.5,0.4-0.3,0.6C28.1,29.9,28.6,29.7,28.6,29.4z M39.3,41.4c0.1,0.2,0.4,0.1,0.6-0.2
			c0.1-0.1,0.1-0.3-0.2-0.3C39.4,40.9,39.2,41.2,39.3,41.4z M39.8,35.7c0-0.2,0-0.4-0.3-0.4c-0.3,0-0.5,0.4-0.3,0.6
			C39.3,36.1,39.7,36,39.8,35.7z M32.7,22.4c0-0.1-0.1-0.3-0.4-0.3c-0.3,0-0.4,0.3-0.3,0.5C32.3,22.8,32.7,22.7,32.7,22.4z
			 M38.8,33.7c-0.3,0-0.5,0.4-0.3,0.6c0.2,0.3,0.6,0.1,0.7-0.2C39.2,34,39.1,33.7,38.8,33.7z M32.6,18.2c0-0.1-0.1-0.2-0.2-0.2
			c-0.2,0-0.3,0.2-0.2,0.3C32.3,18.4,32.6,18.4,32.6,18.2z M32.1,20.2c0.2,0.2,0.5,0.1,0.6-0.1c0-0.1-0.1-0.3-0.3-0.3
			C32.1,19.8,32,20,32.1,20.2z M39.4,39.6c-0.3,0-0.5,0.3-0.4,0.5c0.1,0.2,0.5,0.1,0.6-0.2C39.7,39.8,39.7,39.6,39.4,39.6z
			 M37.1,39.9c0-0.2,0-0.4-0.3-0.4c-0.3,0-0.5,0.3-0.4,0.5C36.6,40.4,37,40.3,37.1,39.9z M38,35.3c-0.3,0-0.5,0.4-0.3,0.6
			c0.2,0.3,0.6,0.1,0.7-0.2C38.4,35.5,38.3,35.3,38,35.3z M36.6,43.3c-0.3,0-0.4,0.3-0.4,0.4c0.1,0.2,0.4,0.1,0.5-0.1
			C36.8,43.4,36.8,43.3,36.6,43.3z M27.1,29.4c0-0.2-0.1-0.4-0.4-0.4c-0.4,0-0.5,0.4-0.3,0.6C26.6,29.9,27,29.7,27.1,29.4z
			 M38.3,42.6c0.1,0.2,0.4,0.1,0.5-0.2c0.1-0.1,0.1-0.3-0.1-0.3C38.4,42.1,38.2,42.4,38.3,42.6z M38.5,40.9c-0.3,0-0.5,0.3-0.4,0.5
			c0.1,0.2,0.5,0.1,0.6-0.1C38.7,41.1,38.7,40.9,38.5,40.9z M38.3,37.4c0.2,0.2,0.6,0.1,0.7-0.2c0-0.2,0-0.4-0.3-0.4
			C38.3,36.8,38.1,37.1,38.3,37.4z M30.4,26.4c0-0.2-0.1-0.4-0.4-0.4c-0.4,0-0.5,0.3-0.4,0.6C29.8,26.8,30.3,26.7,30.4,26.4z
			 M28.4,16.8c0,0.1,0.2,0,0.4-0.1c0,0,0,0,0,0c0,0,0.1-0.1,0-0.1C28.7,16.6,28.4,16.7,28.4,16.8z M29.7,25c0-0.1-0.1-0.4-0.3-0.4
			c-0.3,0-0.5,0.3-0.4,0.5C29.2,25.4,29.6,25.3,29.7,25z M29.4,31c0-0.2-0.1-0.4-0.4-0.4c-0.4,0-0.5,0.4-0.3,0.6
			C28.9,31.5,29.4,31.3,29.4,31z M27.8,31c0-0.2-0.1-0.4-0.4-0.4c-0.4,0-0.5,0.4-0.3,0.6C27.3,31.4,27.8,31.3,27.8,31z M27.9,27.9
			c0-0.2-0.1-0.4-0.3-0.4c-0.4,0-0.5,0.4-0.3,0.6C27.4,28.3,27.9,28.2,27.9,27.9z M31.7,20.9c-0.3,0-0.4,0.3-0.3,0.4
			c0.2,0.2,0.6,0.1,0.6-0.1C32.1,21.1,32,20.9,31.7,20.9z M31.7,23.3c-0.3,0-0.5,0.3-0.3,0.5c0.2,0.3,0.6,0.2,0.7-0.1
			C32,23.5,31.9,23.3,31.7,23.3z M31.1,31c0-0.2-0.1-0.4-0.4-0.4c-0.4,0-0.5,0.4-0.3,0.6C30.6,31.4,31.1,31.3,31.1,31z M31.6,26
			c-0.4,0-0.5,0.3-0.3,0.6c0.2,0.3,0.7,0.2,0.7-0.2C32,26.2,31.9,26,31.6,26z M32,32.6c0-0.2-0.1-0.4-0.4-0.4
			c-0.4,0-0.5,0.4-0.4,0.6C31.4,33.1,31.9,32.9,32,32.6z M31.2,25c0-0.1-0.1-0.4-0.4-0.4c-0.4,0-0.5,0.3-0.3,0.5
			C30.7,25.4,31.2,25.3,31.2,25z M28,22.5c0.1,0.2,0.5,0.1,0.6-0.1c0-0.1,0-0.3-0.2-0.3C28.1,22,27.9,22.3,28,22.5z M26.2,18.8
			c-0.2,0-0.5,0.3-0.4,0.4c0,0.1,0.3,0.1,0.5-0.1C26.3,19,26.4,18.8,26.2,18.8z M26,22c-0.3,0-0.5,0.3-0.4,0.5
			c0.1,0.2,0.5,0.1,0.6-0.2C26.2,22.2,26.2,22,26,22z M26,21.2c0.1-0.1,0.1-0.3-0.1-0.3c-0.2,0-0.5,0.3-0.4,0.5
			C25.5,21.5,25.9,21.4,26,21.2z M26.4,23.6c0-0.1,0-0.3-0.2-0.4c-0.3,0-0.5,0.3-0.4,0.5C25.9,24,26.3,23.9,26.4,23.6z M28.5,19.2
			c0.1,0.2,0.4,0.1,0.5-0.1c0.1-0.1,0-0.2-0.1-0.3C28.6,18.8,28.4,19.1,28.5,19.2z M25.9,26.4c0-0.1,0-0.4-0.3-0.4
			c-0.3,0-0.5,0.4-0.4,0.6C25.4,26.8,25.8,26.7,25.9,26.4z M26.8,22.5c0.1,0.2,0.5,0.1,0.6-0.2c0-0.1,0-0.3-0.2-0.3
			C26.9,22,26.7,22.4,26.8,22.5z M26.9,19.8c-0.2,0-0.4,0.3-0.4,0.4c0.1,0.2,0.4,0.1,0.5-0.1C27.1,20,27.1,19.8,26.9,19.8z
			 M27.3,26.4c0-0.2,0-0.4-0.3-0.4c-0.3,0-0.5,0.4-0.4,0.6C26.8,26.8,27.2,26.7,27.3,26.4z M27.7,23.6c0-0.1,0-0.3-0.3-0.4
			c-0.3,0-0.5,0.3-0.4,0.5C27.2,24,27.6,23.9,27.7,23.6z M26.8,25c0-0.1,0-0.4-0.3-0.4c-0.3,0-0.5,0.4-0.4,0.6
			C26.3,25.4,26.7,25.3,26.8,25z M25.5,25c0-0.1,0-0.4-0.2-0.4c-0.3,0-0.5,0.4-0.4,0.6C25,25.4,25.4,25.3,25.5,25z M27,20.9
			c-0.3,0-0.5,0.3-0.4,0.5c0.1,0.2,0.4,0.1,0.6-0.2C27.2,21.1,27.2,20.9,27,20.9z M25.5,20.2c0,0.2,0.3,0.1,0.5-0.1
			c0.1-0.1,0.1-0.3-0.1-0.3C25.7,19.8,25.5,20.1,25.5,20.2z M28.6,17.5c0,0.1,0.3,0,0.4-0.1c0.1-0.1,0.1-0.2,0-0.2
			C28.8,17.2,28.6,17.4,28.6,17.5z M44.8,38.2c-0.2,0-0.4,0.4-0.4,0.6c0.1,0.2,0.3,0,0.4-0.2C44.9,38.4,44.9,38.2,44.8,38.2z
			 M43.8,38.2c-0.2,0-0.4,0.4-0.4,0.6c0.1,0.2,0.4,0.1,0.5-0.2C44,38.4,44,38.2,43.8,38.2z M45.3,38.8c0.1,0.1,0.3,0,0.4-0.3
			c0.1-0.2,0.1-0.4,0-0.4C45.4,38.2,45.2,38.7,45.3,38.8z M43.4,40.2c0.1,0.2,0.3,0,0.5-0.2c0.1-0.1,0.1-0.4-0.1-0.4
			C43.6,39.6,43.4,40,43.4,40.2z M25.2,23.6c0.1-0.1,0-0.3-0.2-0.4c-0.3,0-0.5,0.3-0.4,0.5C24.7,24,25,23.9,25.2,23.6z M44.7,39.9
			c0.1-0.1,0.1-0.4,0-0.4c-0.2,0-0.4,0.4-0.4,0.6C44.3,40.3,44.6,40.2,44.7,39.9z M43.3,37.4c0.1,0.2,0.4,0.1,0.5-0.2
			c0.1-0.2,0-0.4-0.2-0.4C43.4,36.8,43.2,37.2,43.3,37.4z M25,22.4c0.1-0.1,0.1-0.3-0.1-0.3c-0.3,0-0.5,0.3-0.4,0.5
			C24.5,22.7,24.9,22.6,25,22.4z M25,21.2c0.1-0.1,0.1-0.3-0.1-0.3c-0.2,0-0.5,0.3-0.4,0.5C24.5,21.5,24.8,21.4,25,21.2z M30.5,17.4
			c0-0.1,0-0.2-0.1-0.2c-0.2,0-0.3,0.2-0.3,0.3C30.2,17.6,30.4,17.6,30.5,17.4z M30.5,16.7c0-0.1,0.1-0.2,0-0.2
			c-0.2,0-0.3,0.2-0.3,0.2C30.2,16.9,30.4,16.8,30.5,16.7z M44.8,37.2c0.1-0.2,0-0.4-0.1-0.4c-0.3,0-0.4,0.4-0.3,0.6
			C44.5,37.6,44.7,37.5,44.8,37.2z M31.1,16.5c-0.2,0-0.3,0.2-0.2,0.2c0,0.1,0.3,0.1,0.3-0.1C31.2,16.6,31.2,16.5,31.1,16.5z
			 M28.9,18.2c0.1-0.1,0.1-0.2-0.1-0.2c-0.2,0-0.4,0.2-0.4,0.3C28.5,18.4,28.8,18.4,28.9,18.2z M31.3,22.4c0-0.1-0.1-0.3-0.3-0.3
			c-0.3,0-0.4,0.3-0.3,0.5C30.8,22.8,31.3,22.7,31.3,22.4z M30.5,17.9c-0.2,0-0.3,0.2-0.3,0.3c0.1,0.2,0.4,0.1,0.5-0.1
			C30.7,18.1,30.7,18,30.5,17.9z M31.5,20.1c0-0.1,0-0.3-0.3-0.3c-0.3,0-0.4,0.3-0.3,0.4C31,20.4,31.4,20.3,31.5,20.1z M31.7,18.2
			c0-0.1,0-0.2-0.2-0.2c-0.2,0-0.3,0.2-0.2,0.3C31.3,18.4,31.6,18.4,31.7,18.2z M31.2,17.2c-0.2,0-0.3,0.2-0.2,0.3
			c0.1,0.1,0.3,0.1,0.4-0.1C31.4,17.3,31.3,17.2,31.2,17.2z M29.7,20.2c0.1,0.2,0.5,0.1,0.6-0.1c0-0.1,0-0.3-0.2-0.3
			C29.8,19.8,29.7,20,29.7,20.2z M28.9,16.8c0,0.1,0.2,0,0.4-0.1c0.1-0.1,0.1-0.2,0-0.2C29.2,16.6,28.9,16.7,28.9,16.8z M29.4,17.5
			c0,0.1,0.3,0.1,0.4-0.1c0.1-0.1,0.1-0.2-0.1-0.2C29.5,17.2,29.3,17.4,29.4,17.5z M29.9,16.5c-0.2,0-0.4,0.2-0.3,0.3
			c0,0.1,0.2,0,0.3-0.1C29.9,16.6,30,16.5,29.9,16.5z M29.8,18.8c-0.2,0-0.4,0.2-0.3,0.4c0.1,0.2,0.4,0.1,0.5-0.1
			C30,19,30,18.8,29.8,18.8z M30.5,19.2c0.1,0.2,0.4,0.1,0.5-0.1c0-0.1,0-0.3-0.2-0.3C30.6,18.8,30.4,19,30.5,19.2z M28.8,26.4
			c0-0.2-0.1-0.4-0.3-0.4c-0.4,0-0.5,0.4-0.3,0.6C28.3,26.8,28.8,26.7,28.8,26.4z M27.9,19.8c-0.2,0-0.4,0.3-0.4,0.4
			c0.1,0.2,0.4,0.1,0.5-0.1C28.1,20,28.1,19.8,27.9,19.8z M28.2,25c0-0.1,0-0.4-0.3-0.4c-0.3,0-0.5,0.3-0.4,0.5
			C27.7,25.4,28.1,25.3,28.2,25z M27.9,18.8c-0.2,0-0.4,0.2-0.4,0.4c0,0.2,0.4,0.1,0.5-0.1C28.1,19,28.1,18.8,27.9,18.8z M28.1,20.9
			c-0.3,0-0.4,0.3-0.4,0.4c0.1,0.2,0.5,0.1,0.6-0.1C28.3,21.1,28.3,20.9,28.1,20.9z M28.6,20.2c0.1,0.2,0.4,0.1,0.5-0.1
			c0-0.1,0-0.3-0.2-0.3C28.7,19.8,28.6,20.1,28.6,20.2z M30,22.4c0-0.1,0-0.3-0.3-0.3c-0.3,0-0.5,0.3-0.3,0.5
			C29.5,22.8,29.9,22.7,30,22.4z M30.8,21.2c0-0.1,0-0.3-0.3-0.3c-0.3,0-0.4,0.3-0.3,0.4C30.3,21.5,30.7,21.5,30.8,21.2z M30.5,23.6
			c0-0.1-0.1-0.3-0.3-0.4c-0.3,0-0.5,0.3-0.3,0.5C30,24,30.5,23.9,30.5,23.6z M29.8,18.2c0-0.1,0-0.2-0.1-0.2
			c-0.2,0-0.4,0.2-0.3,0.3C29.4,18.4,29.7,18.4,29.8,18.2z M29.1,23.6c0-0.1,0-0.3-0.3-0.4c-0.3,0-0.5,0.3-0.4,0.5
			C28.6,24,29,23.9,29.1,23.6z M29.5,21.2c0-0.1,0-0.3-0.2-0.3c-0.3,0-0.4,0.3-0.4,0.4C29,21.5,29.4,21.5,29.5,21.2z M36.2,41.2
			c0-0.1,0-0.3-0.3-0.3c-0.3,0-0.5,0.3-0.4,0.5C35.7,41.6,36.1,41.5,36.2,41.2z M38.6,44.3c-0.2,0-0.4,0.3-0.4,0.4
			c0,0.2,0.3,0.1,0.5-0.1C38.8,44.4,38.8,44.3,38.6,44.3z M38.7,43.3c-0.3,0-0.5,0.3-0.4,0.4c0,0.2,0.4,0.1,0.5-0.1
			C38.9,43.4,38.9,43.3,38.7,43.3z M39.5,44.6c0.1-0.1,0.2-0.3,0-0.3c-0.2,0-0.5,0.3-0.4,0.4C39,44.9,39.3,44.8,39.5,44.6z
			 M39.3,38.6c0-0.1,0-0.4-0.3-0.4c-0.3,0-0.5,0.4-0.4,0.6C38.9,39,39.3,38.9,39.3,38.6z M38.4,39.9c0-0.1,0-0.4-0.2-0.4
			c-0.3,0-0.5,0.3-0.4,0.5C37.9,40.3,38.3,40.3,38.4,39.9z M38.3,45.5c0.1-0.1,0.2-0.2,0-0.2c-0.2,0-0.4,0.3-0.4,0.4
			C37.9,45.8,38.2,45.7,38.3,45.5z M40.6,38.6c0-0.2,0-0.4-0.2-0.4c-0.3,0-0.5,0.4-0.4,0.6C40.2,39,40.5,38.9,40.6,38.6z M41.1,35.7
			c0-0.2,0-0.4-0.3-0.4c-0.3,0-0.5,0.4-0.3,0.6C40.7,36.1,41.1,36,41.1,35.7z M39.7,43.6c0.1-0.1,0.1-0.3-0.1-0.3
			c-0.2,0-0.5,0.3-0.4,0.4C39.3,43.9,39.6,43.8,39.7,43.6z M40.3,33.7c-0.3,0-0.5,0.4-0.3,0.6c0.2,0.3,0.6,0.1,0.6-0.2
			C40.6,34,40.6,33.7,40.3,33.7z M40.3,40.1c0.1,0.2,0.4,0.1,0.6-0.2c0.1-0.1,0-0.4-0.2-0.4C40.4,39.6,40.2,39.9,40.3,40.1z
			 M39.8,42.1c-0.3,0-0.5,0.3-0.4,0.5c0.1,0.2,0.4,0.1,0.5-0.2C39.9,42.3,40,42.1,39.8,42.1z M40.3,37.2c0-0.2,0-0.4-0.3-0.4
			c-0.3,0-0.5,0.4-0.4,0.6C39.8,37.6,40.2,37.5,40.3,37.2z M37.7,43.3c-0.3,0-0.4,0.3-0.4,0.4c0.1,0.2,0.4,0.1,0.5-0.1
			C37.9,43.4,37.9,43.3,37.7,43.3z M37.7,44.3c-0.2,0-0.4,0.3-0.4,0.4c0,0.2,0.3,0.1,0.5-0.1C37.8,44.5,37.9,44.3,37.7,44.3z
			 M35.6,47c0.1-0.1,0.1-0.2,0-0.2c-0.2,0-0.4,0.2-0.4,0.3C35.2,47.2,35.5,47.1,35.6,47z M35.8,45.3c-0.2,0-0.4,0.2-0.3,0.3
			c0,0.2,0.3,0.1,0.4-0.1C36,45.4,36,45.3,35.8,45.3z M35.7,39.9c0-0.1,0-0.4-0.3-0.4c-0.3,0-0.5,0.3-0.4,0.5
			C35.2,40.3,35.6,40.2,35.7,39.9z M36.5,42.4c0.1-0.1,0-0.3-0.2-0.3c-0.3,0-0.4,0.3-0.4,0.5C36.1,42.8,36.4,42.7,36.5,42.4z
			 M35,46.1c-0.2,0-0.3,0.2-0.3,0.3c0,0.1,0.3,0.1,0.4-0.1C35.1,46.2,35.1,46.1,35,46.1z M35.8,46.1c-0.2,0-0.4,0.2-0.4,0.3
			c0,0.1,0.3,0.1,0.4-0.1C35.9,46.2,35.9,46.1,35.8,46.1z M37.6,45.3c-0.2,0-0.4,0.2-0.4,0.4c0,0.1,0.3,0.1,0.4-0.1
			C37.7,45.4,37.7,45.3,37.6,45.3z M37.2,46.3c0.1-0.1,0.1-0.2,0-0.2c-0.2,0-0.4,0.2-0.4,0.3C36.8,46.5,37.1,46.5,37.2,46.3z
			 M36.7,45.3c-0.2,0-0.4,0.2-0.4,0.4c0,0.1,0.3,0.1,0.4-0.1C36.8,45.4,36.9,45.3,36.7,45.3z M36.7,44.3c-0.2,0-0.4,0.2-0.4,0.4
			c0,0.2,0.4,0.1,0.5-0.1C36.9,44.5,36.9,44.3,36.7,44.3z M36.6,46.3c0.1-0.1,0.1-0.2,0-0.2c-0.2,0-0.4,0.2-0.4,0.3
			C36.2,46.5,36.4,46.5,36.6,46.3z M42.4,35.7c0-0.2,0-0.4-0.3-0.4c-0.3,0-0.5,0.4-0.3,0.6C42,36.1,42.3,36,42.4,35.7z M27.3,16.8
			c0,0.1,0.2,0,0.4-0.1c0,0,0.1-0.1,0.1-0.1c0.1,0,0.1-0.1,0-0.1c-0.1,0-0.1,0-0.2,0C27.5,16.7,27.3,16.8,27.3,16.8z M31.6,19.2
			c0.1,0.2,0.5,0.1,0.5-0.1c0-0.1-0.1-0.2-0.3-0.3C31.6,18.8,31.5,19,31.6,19.2z M42.9,39.6c-0.3,0-0.5,0.4-0.4,0.6
			c0.1,0.2,0.4,0.1,0.5-0.2C43,39.8,43,39.6,42.9,39.6z M42.8,41.2c0.1-0.1,0.1-0.3,0-0.3c-0.2,0-0.5,0.4-0.4,0.5
			C42.4,41.6,42.7,41.5,42.8,41.2z M22.4,25.2c0.1,0.2,0.4,0.1,0.5-0.2c0.1-0.1,0-0.4-0.2-0.4C22.5,24.6,22.3,25,22.4,25.2z
			 M43.7,41.2c0.1-0.1,0.1-0.3,0-0.3c-0.2,0-0.5,0.4-0.4,0.6C43.3,41.6,43.5,41.5,43.7,41.2z M32.8,25c0-0.1-0.1-0.4-0.4-0.4
			c-0.3,0-0.5,0.3-0.3,0.5C32.3,25.4,32.7,25.3,32.8,25z M42.6,42.4c0.1-0.1,0.2-0.3,0-0.3c-0.2,0-0.5,0.4-0.4,0.5
			C42.1,42.8,42.4,42.7,42.6,42.4z M22.9,23.6c0.1-0.1,0.1-0.3-0.1-0.4c-0.3,0-0.5,0.4-0.4,0.6C22.4,24,22.8,23.9,22.9,23.6z
			 M22.9,22c-0.2,0-0.5,0.3-0.4,0.5c0,0.2,0.3,0.1,0.5-0.2C23,22.2,23,22,22.9,22z M40.8,40.9c-0.3,0-0.5,0.3-0.4,0.5
			c0.1,0.2,0.4,0.1,0.5-0.2C41,41.1,41,40.9,40.8,40.9z M42,34.1c0-0.2,0-0.4-0.3-0.4c-0.3,0-0.5,0.4-0.3,0.7
			C41.6,34.6,41.9,34.5,42,34.1z M41.3,38.8c0.1,0.2,0.5,0.1,0.6-0.2c0.1-0.2,0-0.4-0.2-0.4C41.4,38.2,41.2,38.6,41.3,38.8z
			 M41.6,37.2c0-0.2,0-0.4-0.2-0.4c-0.3,0-0.5,0.4-0.4,0.6C41.1,37.6,41.5,37.5,41.6,37.2z M41.4,43.6c0.1-0.1,0.2-0.3,0-0.3
			c-0.2,0-0.5,0.3-0.5,0.5C41,43.9,41.2,43.8,41.4,43.6z M40.6,43.6c0.1-0.1,0.1-0.3,0-0.3c-0.2,0-0.5,0.3-0.4,0.5
			C40.2,43.9,40.4,43.8,40.6,43.6z M40.8,42.4c0.1-0.1,0.1-0.3-0.1-0.3c-0.2,0-0.5,0.3-0.4,0.5C40.4,42.8,40.7,42.7,40.8,42.4z
			 M34.9,46.8c-0.2,0-0.3,0.2-0.3,0.3c0,0.1,0.2,0,0.3-0.1C35,46.9,35.1,46.8,34.9,46.8z M42.4,38.8c0.1,0.2,0.4,0.1,0.5-0.2
			c0.1-0.2,0-0.4-0.2-0.4C42.5,38.2,42.3,38.6,42.4,38.8z M42.5,36.8c-0.3,0-0.5,0.4-0.3,0.6c0.1,0.2,0.5,0.1,0.5-0.2
			C42.8,37,42.8,36.8,42.5,36.8z M41.8,40.9c-0.2,0-0.5,0.4-0.4,0.5c0.1,0.2,0.4,0.1,0.5-0.2C42,41.1,42,40.9,41.8,40.9z M41.8,39.6
			c-0.3,0-0.5,0.3-0.4,0.5c0.1,0.2,0.4,0.1,0.5-0.2C42,39.8,42,39.6,41.8,39.6z M41.7,42.4c0.1-0.1,0.1-0.3,0-0.3
			c-0.2,0-0.5,0.3-0.4,0.5C41.3,42.8,41.6,42.7,41.7,42.4z M35.5,22.4c0-0.1-0.1-0.3-0.4-0.3c-0.3,0-0.4,0.3-0.2,0.5
			C35.1,22.7,35.5,22.6,35.5,22.4z M38.2,21.2c0-0.1-0.2-0.3-0.4-0.3c0,0,0,0-0.1,0c-0.2,0-0.2,0.4,0.1,0.5
			C38,21.5,38.2,21.4,38.2,21.2z M37,34.4c0.2,0.3,0.6,0.1,0.7-0.2c0-0.2-0.1-0.4-0.4-0.4C37,33.7,36.8,34.1,37,34.4z M37.7,18.8
			C37.7,18.8,37.7,18.8,37.7,18.8c-0.2,0.1,0,0.4,0.2,0.5c0.2,0,0.2-0.1,0.2-0.2C38,19,37.9,18.8,37.7,18.8z M37.8,19.8
			C37.8,19.8,37.8,19.8,37.8,19.8c-0.2,0.1-0.1,0.4,0.1,0.5c0.2,0.1,0.3,0,0.3-0.2C38.2,20,38,19.8,37.8,19.8z M38,38.6
			c0-0.2,0-0.4-0.3-0.4c-0.3,0-0.5,0.4-0.4,0.5C37.5,39,37.9,38.9,38,38.6z M37.7,42.4c0.1-0.1,0-0.3-0.2-0.3
			c-0.3,0-0.4,0.3-0.4,0.5C37.2,42.8,37.6,42.7,37.7,42.4z M37.2,20.1c0-0.1-0.2-0.3-0.4-0.3c0,0,0,0-0.1,0
			c-0.2,0.1-0.1,0.3,0.1,0.5C37.1,20.4,37.3,20.3,37.2,20.1z M36.6,21.4c0.2,0.2,0.5,0,0.4-0.2c0-0.1-0.2-0.3-0.4-0.3c0,0,0,0-0.1,0
			C36.4,20.9,36.4,21.2,36.6,21.4z M36.3,22c-0.3,0-0.3,0.3-0.1,0.5c0.2,0.2,0.5,0.1,0.5-0.2C36.7,22.2,36.6,22,36.3,22
			C36.4,22,36.4,22,36.3,22z M37.5,41.2c0-0.1,0-0.3-0.2-0.3c-0.3,0-0.5,0.3-0.4,0.5C37,41.6,37.4,41.5,37.5,41.2z M35.9,18.8
			C35.9,18.8,35.9,18.8,35.9,18.8c-0.2,0.1-0.2,0.3,0,0.4c0.2,0.1,0.4,0,0.3-0.2C36.2,19,36.1,18.8,35.9,18.8z M35.9,17.9
			C35.9,17.9,35.9,18,35.9,17.9c-0.2,0.1-0.1,0.3,0.1,0.4c0.2,0.1,0.3,0,0.2-0.2C36.2,18.1,36.1,18,35.9,17.9z M36.8,18.8
			C36.8,18.8,36.8,18.8,36.8,18.8c-0.2,0.1-0.1,0.4,0.1,0.5c0.2,0.1,0.3,0,0.2-0.2C37.2,19,37,18.8,36.8,18.8z M36.7,17.9
			C36.7,17.9,36.7,18,36.7,17.9c-0.2,0.1,0,0.4,0.3,0.4c0.1,0,0.2-0.1,0.1-0.2C37,18.1,36.9,18,36.7,17.9z M33.9,20.1
			c0-0.1-0.1-0.3-0.3-0.3c-0.3,0-0.3,0.3-0.2,0.4C33.6,20.4,33.9,20.3,33.9,20.1z M35.7,44.3c-0.2,0-0.4,0.2-0.3,0.4
			c0.1,0.2,0.4,0.1,0.5-0.1C35.9,44.5,35.9,44.3,35.7,44.3z M34.9,23.6c0-0.1-0.1-0.3-0.4-0.4c-0.3,0-0.4,0.3-0.2,0.5
			C34.5,24,34.9,23.9,34.9,23.6z M34.6,21.2c0-0.1-0.1-0.3-0.4-0.3c-0.3,0-0.4,0.3-0.2,0.5C34.3,21.5,34.6,21.4,34.6,21.2z
			 M36.6,38.6c0-0.1,0-0.4-0.3-0.4c-0.3,0-0.5,0.3-0.4,0.5C36,39,36.5,38.9,36.6,38.6z M34.1,22.4c0-0.1-0.1-0.3-0.4-0.3
			c-0.3,0-0.4,0.3-0.2,0.5C33.7,22.7,34.1,22.6,34.1,22.4z M35.8,25c0-0.1-0.1-0.4-0.4-0.4c-0.3,0-0.4,0.4-0.2,0.6
			C35.4,25.4,35.8,25.3,35.8,25z M35.9,23.3C35.9,23.3,35.9,23.3,35.9,23.3c-0.3,0-0.4,0.4-0.2,0.6c0.2,0.2,0.6,0.1,0.6-0.2
			C36.3,23.5,36.2,23.3,35.9,23.3z M35.7,33.7c-0.4,0-0.5,0.4-0.3,0.6c0.2,0.3,0.7,0.1,0.7-0.2C36.1,34,36,33.7,35.7,33.7z
			 M36.5,35.3c-0.3,0-0.5,0.4-0.4,0.6c0.2,0.3,0.7,0.2,0.7-0.2C36.9,35.5,36.8,35.3,36.5,35.3z M36.8,37.3c0.2,0.3,0.6,0.2,0.7-0.2
			c0-0.2,0-0.4-0.3-0.4C36.8,36.8,36.6,37.1,36.8,37.3z M36,37.2c0-0.2-0.1-0.4-0.4-0.4c-0.3,0-0.5,0.3-0.4,0.6
			C35.4,37.6,35.9,37.5,36,37.2z M34.4,27.9c0-0.2-0.1-0.4-0.4-0.4c-0.4,0-0.5,0.4-0.3,0.6C34,28.3,34.4,28.2,34.4,27.9z M33.6,26.4
			c0-0.1-0.1-0.4-0.4-0.4c-0.4,0-0.5,0.4-0.3,0.6C33.1,26.8,33.6,26.7,33.6,26.4z M34.7,47.6C34.7,47.6,34.7,47.6,34.7,47.6
			c0.1-0.1,0.1-0.1,0-0.1c-0.1,0-0.3,0.2-0.3,0.2C34.4,47.7,34.6,47.7,34.7,47.6z M33.5,23.6c0-0.1-0.1-0.3-0.4-0.4
			c-0.3,0-0.5,0.3-0.3,0.5C33.1,24,33.5,23.9,33.5,23.6z M34.3,25c0-0.1-0.1-0.4-0.4-0.4c-0.4,0-0.5,0.4-0.3,0.6
			C33.9,25.4,34.3,25.3,34.3,25z M33.3,17.9C33.3,17.9,33.3,17.9,33.3,17.9c-0.2,0-0.3,0.2-0.1,0.4c0.2,0.1,0.4,0,0.4-0.1
			C33.6,18.1,33.5,18,33.3,17.9z M33.4,21.2c0-0.1-0.1-0.3-0.3-0.3c-0.3,0-0.4,0.3-0.2,0.5C33,21.5,33.4,21.4,33.4,21.2z M32.7,19.2
			c0.2,0.2,0.5,0.1,0.5-0.1c0-0.1-0.1-0.2-0.3-0.3C32.7,18.8,32.6,19.1,32.7,19.2z M35.1,38.6c0-0.2-0.1-0.4-0.4-0.4
			c-0.3,0-0.5,0.3-0.4,0.5C34.6,39,35,38.9,35.1,38.6z M34.6,45.6c0.1,0.2,0.4,0.1,0.5-0.1c0-0.1,0-0.2-0.1-0.2
			C34.6,45.3,34.5,45.5,34.6,45.6z M34.2,46.8c-0.2,0-0.3,0.2-0.3,0.3c0,0.1,0.2,0.1,0.3-0.1C34.4,46.9,34.4,46.8,34.2,46.8z
			 M34.5,34.1c0-0.2-0.1-0.4-0.4-0.4c-0.4,0-0.5,0.4-0.4,0.6C33.9,34.6,34.4,34.5,34.5,34.1z M33.9,47.7c0,0.1,0.2,0,0.3-0.1
			c0.1-0.1,0.1-0.1,0-0.1C34,47.4,33.9,47.6,33.9,47.7z M35.7,20.3c0.2,0.1,0.4,0,0.4-0.2c0-0.1-0.2-0.3-0.4-0.3c0,0,0,0-0.1,0
			C35.5,19.8,35.5,20.1,35.7,20.3z M35,17.2C35,17.2,35,17.2,35,17.2c-0.2,0.1,0,0.3,0.2,0.4c0.1,0,0.2,0,0.1-0.2
			C35.3,17.3,35.2,17.2,35,17.2z M34.9,19.2c0.2,0.1,0.4,0,0.4-0.2c0-0.1-0.1-0.2-0.3-0.3c0,0,0,0,0,0
			C34.7,18.9,34.7,19.1,34.9,19.2z M35.1,17.9C35.1,17.9,35,18,35.1,17.9c-0.2,0.1-0.1,0.3,0.1,0.4c0.2,0.1,0.3,0,0.3-0.2
			C35.4,18.1,35.2,18,35.1,17.9z M34.9,16.5C34.8,16.5,34.8,16.5,34.9,16.5c-0.1,0.1,0.1,0.3,0.3,0.3c0.1,0,0.1-0.1,0-0.1
			C35.1,16.6,35,16.5,34.9,16.5z M35.5,20.9c-0.2,0-0.3,0.3-0.1,0.5c0.2,0.2,0.5,0.1,0.5-0.2C35.9,21.1,35.7,20.9,35.5,20.9
			C35.5,20.9,35.5,20.9,35.5,20.9z M35.7,17.2C35.7,17.2,35.7,17.2,35.7,17.2c-0.2,0.1,0.1,0.3,0.2,0.4c0.1,0,0.2-0.1,0.1-0.2
			C36,17.3,35.9,17.2,35.7,17.2z M34.2,18.3c0.2,0.1,0.4,0,0.3-0.1c0-0.1-0.1-0.2-0.3-0.2c0,0,0,0,0,0C34,18,34,18.2,34.2,18.3z
			 M33.7,16.5C33.6,16.5,33.6,16.5,33.7,16.5c-0.2,0-0.1,0.2,0.1,0.3c0.1,0.1,0.2,0,0.2-0.1C33.9,16.6,33.8,16.5,33.7,16.5z
			 M33.9,18.8c-0.2,0-0.3,0.3-0.1,0.4c0.2,0.1,0.4,0.1,0.4-0.1C34.2,19,34.1,18.8,33.9,18.8C33.9,18.8,33.9,18.8,33.9,18.8z
			 M34.3,16.5C34.3,16.5,34.2,16.5,34.3,16.5c-0.1,0.1,0,0.3,0.2,0.3c0.1,0,0.2,0,0.1-0.1C34.5,16.6,34.4,16.5,34.3,16.5z
			 M34.3,17.2C34.3,17.2,34.3,17.2,34.3,17.2c-0.2,0.1-0.1,0.3,0.1,0.3c0.2,0.1,0.3,0,0.2-0.1C34.6,17.3,34.5,17.2,34.3,17.2z
			 M34.7,19.8c-0.2,0-0.3,0.3-0.1,0.4c0.2,0.2,0.5,0.1,0.5-0.2C35,20,34.9,19.8,34.7,19.8C34.7,19.8,34.7,19.8,34.7,19.8z"/>
	</g>
	<g>
		<polygon class="st3" points="51.9,14 58.4,10 51.9,6 		"/>
		<path class="st3" d="M54,2c-4.4,0-8,3.6-8,8c0,4.4,3.6,8,8,8c4.4,0,8-3.6,8-8C62,5.6,58.4,2,54,2z M54,17c-3.9,0-7-3.1-7-7
			c0-3.9,3.1-7,7-7c3.9,0,7,3.1,7,7C61,13.9,57.9,17,54,17z"/>
	</g>
</g>
</svg>
