<svg id="Layer_1" data-name="Layer 1" xmlns="http://www.w3.org/2000/svg" viewBox="0 0 64 64"><defs><style>.cls-1{fill:#fbb03b;}.cls-2{fill:#4d4d4d;}</style></defs><title>new</title><path class="cls-1" d="M32,0A32,32,0,1,0,64,32,32,32,0,0,0,32,0Z"/><path class="cls-2" d="M61.48,44.47c-.2.48-.45.92-.67,1.38H55.09L55,46.3a4.25,4.25,0,0,1-2.47,2.85l-.44.19,1,6.71c-.41.36-.81.71-1.24,1l-1.11-7.54-.47,0a4.3,4.3,0,0,1-2.1-.85l-.38-.28L35.6,57.87l.1.38a2.09,2.09,0,0,1,.07.53,2.35,2.35,0,0,1-4.69,0,2.38,2.38,0,0,1,2.37-2.33,2.5,2.5,0,0,1,.95.23l.34.16,12.17-9.53-.18-.44a4.22,4.22,0,0,1-.34-1.69A4.34,4.34,0,0,1,46.55,44l.13-.46-13.54-8-.33.33a4.37,4.37,0,1,1-3-7.5A4.39,4.39,0,0,1,34,33.88l-.13.46,13.53,8,.34-.33a4.42,4.42,0,0,1,2.54-1.21l.47,0,2.42-15.94-.48-.17a6.33,6.33,0,0,1,2.1-12.3,6.27,6.27,0,0,1,3.1.84,31.91,31.91,0,0,1,3.2,5.45A6.37,6.37,0,0,1,55,25l-.5,0L52.08,41l.43.19A4.33,4.33,0,0,1,55,44l.13.46ZM17,57.46l0-.32a15.8,15.8,0,0,1,.58-4.34l.06-.3a16.64,16.64,0,0,1,8.7-10.32.81.81,0,0,0,.37-1.1.75.75,0,0,0-.67-.39H26l-.19.07a18.25,18.25,0,0,0-7.43,6.59A20,20,0,0,0,17,49.85l-.41.92L16,50a20.48,20.48,0,0,1,4.92-30l.33-.2a6.32,6.32,0,0,1,.69-.41l.21-.14A20.6,20.6,0,0,1,41,18.83l.12.06.24,0a.78.78,0,0,0,.7-.49.71.71,0,0,0,0-.53.78.78,0,0,0-.43-.46A21.35,21.35,0,0,0,35,15.39l-.75-.1.26-.72A17,17,0,0,1,47.11,3.79c-.71-.38-1.44-.72-2.18-1a18.48,18.48,0,0,0-12.13,12l-.14.44H32A22.26,22.26,0,0,0,21.16,18l-.22.12a22.27,22.27,0,0,0-4.54,3.5h0l-.07.15-.07.07a22,22,0,0,0-.34,30.37l.23.25-.08.32a18.69,18.69,0,0,0-.54,4.38,17.56,17.56,0,0,0,.18,2.31q.84.51,1.71,1A16.39,16.39,0,0,1,17,57.46Z"/></svg>