<?xml version="1.0" encoding="utf-8"?>
<!-- Generator: Adobe Illustrator 16.0.0, SVG Export Plug-In . SVG Version: 6.00 Build 0)  -->
<!DOCTYPE svg PUBLIC "-//W3C//DTD SVG 1.1//EN" "http://www.w3.org/Graphics/SVG/1.1/DTD/svg11.dtd">
<svg version="1.1" id="Layer_1" xmlns="http://www.w3.org/2000/svg" xmlns:xlink="http://www.w3.org/1999/xlink" x="0px" y="0px"
	 width="33px" height="33px" viewBox="0 0 33 33" style="enable-background:new 0 0 33 33;" xml:space="preserve">
<style type="text/css">
<![CDATA[
	.st0{fill:#7E459A;}
	.st1{fill:#14B690;}
	.st2{fill:#E5E53E;}
	.st3{fill:#4B4B4B;}
	.st4{fill:#4D4D4D;}
	.st5{fill:#E9CC2B;}
	.st6{fill:none;stroke:#002A6A;stroke-width:2;stroke-miterlimit:10;}
	.st7{fill:#1B75BB;}
	.st8{fill:#1D9178;}
	.st9{fill:#ED8121;}
	.st10{fill:#50C0B4;}
	.st11{fill:#56BFA0;}
	.st12{fill:#F05A28;}
	.st13{fill:#F0820A;}
	.st14{fill:#222222;}
	.st15{fill:#F15A24;}
	.st16{fill:#F16522;}
	.st17{fill:#F48331;}
	.st18{fill:#F89E38;}
	.st19{fill:#927D00;}
	.st20{fill:url(#SVGID_1_);}
	.st21{fill:#C7B299;}
	.st22{fill:#FBB03B;}
	.st23{fill:#FFBE13;}
	.st24{fill:#FFD700;}
	.st25{fill:#FFD900;}
	.st26{fill:#FFFFFF;}
	.st27{fill:#333333;}
	.st28{fill:#39B54A;}
	.st29{fill:#002A6A;}
	.st30{fill:#003964;}
	.st31{fill:#009245;}
	.st32{fill:#D3DE46;}
	.st33{fill:#D44327;}
	.st34{fill:#D76F34;}
	.st35{fill:#3FA7F3;}
	.st36{fill:#A34F9D;}
	.st37{fill:#0A64AA;}
	.st38{fill:#76327E;}
	.st39{fill:#DA5222;}
	.st40{fill:#A74B89;}
	.st41{fill:#404041;}
]]>
</style>
<path class="st26" d="M32.2,0.6c-0.2-0.2-0.6-0.2-0.8,0c0,0-30,17.4-30.5,17.6c-0.1,0.1-0.2,0.2-0.3,0.3c-0.2,0.4,0,0.8,0.3,1
	c0,0,0,0,0.1,0c0,0,0,0,0,0l8.1,2.9c0.4,0.1,0.8-0.1,1-0.5c0.1-0.4-0.1-0.8-0.5-1L3,18.7l27.8-16l-3.4,24.6l-8.8-3.2
	c-0.3-0.1-0.7,0-0.9,0.3l-3.5,4.9v-5.9l10.6-11.8c0.3-0.3,0.3-0.8-0.1-1.1c-0.3-0.3-0.8-0.3-1.1,0.1l-10.8,12
	c-0.1,0.1-0.2,0.3-0.2,0.5v8.6c0,0.3,0.2,0.6,0.5,0.7c0.1,0,0.2,0,0.2,0c0.2,0,0.5-0.1,0.6-0.3l4.5-6.5l9.1,3.3
	c0.2,0.1,0.5,0.1,0.7-0.1c0.2-0.1,0.3-0.3,0.4-0.5l3.8-27C32.5,1.1,32.4,0.8,32.2,0.6z"/>
</svg>
