<?xml version="1.0" encoding="utf-8"?>
<!-- Generator: Adobe Illustrator 16.0.0, SVG Export Plug-In . SVG Version: 6.00 Build 0)  -->
<!DOCTYPE svg PUBLIC "-//W3C//DTD SVG 1.1//EN" "http://www.w3.org/Graphics/SVG/1.1/DTD/svg11.dtd">
<svg version="1.1" id="Layer_1" xmlns="http://www.w3.org/2000/svg" xmlns:xlink="http://www.w3.org/1999/xlink" x="0px" y="0px"
	 width="64px" height="64px" viewBox="0 0 64 64" style="enable-background:new 0 0 64 64;" xml:space="preserve">
<style type="text/css">
<![CDATA[
	.st0{fill:#7E459A;}
	.st1{fill:#14B690;}
	.st2{fill:#E5E53E;}
	.st3{fill:#4D4D4D;}
	.st4{fill:#E9CC2B;}
	.st5{fill:none;stroke:#002A6A;stroke-width:2;stroke-miterlimit:10;}
	.st6{fill:#1B75BB;}
	.st7{fill:#1D9178;}
	.st8{fill:#ED8121;}
	.st9{fill:#50C0B4;}
	.st10{fill:#5495CF;}
	.st11{fill:#56BFA0;}
	.st12{fill:#F05A28;}
	.st13{fill:#F0820A;}
	.st14{fill:#F15A24;}
	.st15{fill:#F16522;}
	.st16{fill:#F48331;}
	.st17{fill:#F89E38;}
	.st18{fill:#927D00;}
	.st19{fill:#C7B299;}
	.st20{fill:#FBB03B;}
	.st21{fill:#FDC010;}
	.st22{fill:#FFBE13;}
	.st23{fill:#FFD700;}
	.st24{fill:#FFFFFF;}
	.st25{fill:#333333;}
	.st26{fill:#39B54A;}
	.st27{fill:#002A6A;}
	.st28{fill:#003964;}
	.st29{fill:#009245;}
	.st30{fill:#D3DE46;}
	.st31{fill:#D44327;}
	.st32{fill:#D76F34;}
	.st33{fill:#3FA7F3;}
	.st34{fill:#A34F9D;}
	.st35{fill:#0A64AA;}
	.st36{fill:#76327E;}
	.st37{fill:#DA5222;}
	.st38{fill:#A74B89;}
	.st39{fill:#404041;}
]]>
</style>
<g>
	<path class="st24" d="M32,0C14.326,0,0,14.327,0,32s14.326,32,32,32s32-14.327,32-32S49.674,0,32,0z"/>
	<g>
		<path class="st25" d="M44.43,11.123c3.545,2.628,5.402,6.443,5.574,11.444h-9.449c-0.174-2.829-1.439-4.84-3.797-6.033
			c-1.57-0.788-3.521-1.179-5.857-1.181c-2.596,0-4.668,0.512-6.217,1.532c-1.549,1.022-2.324,2.447-2.324,4.278
			c0,1.682,0.763,2.938,2.289,3.769c0.982,0.552,3.068,1.202,6.252,1.945l8.258,1.947c3.621,0.854,6.33,1.991,8.141,3.416
			c2.803,2.214,4.205,5.417,4.205,9.61c0,2.532-0.582,4.81-1.734,6.836c4.098-4.362,6.611-10.229,6.611-16.686
			c0-9.238-5.139-17.276-12.713-21.412C43.926,10.761,44.18,10.938,44.43,11.123z"/>
		<path class="st31" d="M12.496,41.083l9.385-0.001c0.305,2.15,0.902,3.757,1.793,4.821c1.629,1.937,4.422,2.905,8.377,2.905
			c2.367,0,4.291-0.255,5.77-0.767c2.801-0.978,4.203-2.797,4.201-5.458c0.002-1.553-0.686-2.755-2.057-3.608
			c-1.375-0.829-3.553-1.563-6.535-2.202l-5.094-1.118c-5.006-1.107-8.445-2.311-10.318-3.607c-3.17-2.172-4.756-5.565-4.758-10.181
			c0.002-3.018,0.801-5.666,2.389-7.952C10.719,18.378,7.619,24.827,7.619,32c0,6.651,2.666,12.678,6.984,17.076
			C13.199,46.827,12.496,44.162,12.496,41.083z"/>
	</g>
</g>
</svg>
