<?xml version="1.0" encoding="utf-8"?>
<!-- Generator: Adobe Illustrator 16.0.0, SVG Export Plug-In . SVG Version: 6.00 Build 0)  -->
<!DOCTYPE svg PUBLIC "-//W3C//DTD SVG 1.1//EN" "http://www.w3.org/Graphics/SVG/1.1/DTD/svg11.dtd">
<svg version="1.1" id="Layer_1" xmlns="http://www.w3.org/2000/svg" xmlns:xlink="http://www.w3.org/1999/xlink" x="0px" y="0px"
	 width="64px" height="64px" viewBox="0 0 64 64" style="enable-background:new 0 0 64 64;" xml:space="preserve">
<style type="text/css">
<![CDATA[
	.st0{fill:#7E459A;}
	.st1{fill:#14B690;}
	.st2{fill:#E5E53E;}
	.st3{fill:#4D4D4D;}
	.st4{fill:#E9CC2B;}
	.st5{fill:none;stroke:#002A6A;stroke-width:2;stroke-miterlimit:10;}
	.st6{fill:#1B75BB;}
	.st7{fill:#1D9178;}
	.st8{fill:#ED8121;}
	.st9{fill:#50C0B4;}
	.st10{fill:#5495CF;}
	.st11{fill:#56BFA0;}
	.st12{fill:#F05A28;}
	.st13{fill:#F0820A;}
	.st14{fill:#F15A24;}
	.st15{fill:#F16522;}
	.st16{fill:#F48331;}
	.st17{fill:#F89E38;}
	.st18{fill:#927D00;}
	.st19{fill:#C7B299;}
	.st20{fill:#FBB03B;}
	.st21{fill:#FDC010;}
	.st22{fill:#FFBE13;}
	.st23{fill:#FFD700;}
	.st24{fill:#FFFFFF;}
	.st25{fill:#333333;}
	.st26{fill:#39B54A;}
	.st27{fill:#002A6A;}
	.st28{fill:#003964;}
	.st29{fill:#009245;}
	.st30{fill:#D3DE46;}
	.st31{fill:#D44327;}
	.st32{fill:#D76F34;}
	.st33{fill:#3FA7F3;}
	.st34{fill:#A34F9D;}
	.st35{fill:#0A64AA;}
	.st36{fill:#76327E;}
	.st37{fill:#DA5222;}
	.st38{fill:#A74B89;}
	.st39{fill:#404041;}
]]>
</style>
<g>
	<circle class="st24" cx="32" cy="32" r="32"/>
	<g>
		<circle class="st15" cx="32" cy="32" r="28.801"/>
	</g>
	<path class="st24" d="M26.311,29.448l2.832,4.839v6.876H16.301l-3.133-5.354h8.498c0.348,0,0.631-0.282,0.631-0.629
		c0-0.349-0.283-0.629-0.631-0.629h-9.234L9.6,29.713v-6.877h12.842l3.133,5.354h-8.498c-0.348,0-0.629,0.281-0.629,0.629
		c0,0.347,0.281,0.629,0.629,0.629H26.311z M41.559,22.835l-3.133,5.354h8.498c0.348,0,0.629,0.281,0.629,0.629
		c0,0.347-0.281,0.629-0.629,0.629h-9.234l-2.832,4.839v6.876h12.842l3.132-5.354h-8.498c-0.347,0-0.63-0.282-0.63-0.629
		c0-0.349,0.283-0.629,0.63-0.629h9.235l2.832-4.839v-6.877H41.559z M28.818,22.835L32,29.365l3.18-6.529H28.818z"/>
</g>
</svg>
