<svg id="Layer_1" data-name="Layer 1" xmlns="http://www.w3.org/2000/svg" xmlns:xlink="http://www.w3.org/1999/xlink" viewBox="0 0 64 64"><defs><style>.cls-1{fill:#fff;}.cls-2{fill:#ff3232;}.cls-3{fill:url(#New_Gradient_Swatch_4);}.cls-4{fill:url(#radial-gradient);}</style><linearGradient id="New_Gradient_Swatch_4" x1="23.35" y1="14.64" x2="29.09" y2="20.38" gradientUnits="userSpaceOnUse"><stop offset="0" stop-color="#ff3232"/><stop offset="1" stop-color="#c0272d"/></linearGradient><radialGradient id="radial-gradient" cx="34.59" cy="39.69" r="10.55" xlink:href="#New_Gradient_Swatch_4"/></defs><title>new</title><circle class="cls-1" cx="32" cy="32" r="32"/><path class="cls-2" d="M34.91,24.59,45.42,14.08h-10L21.2,28.27l5,5a7.09,7.09,0,1,1-2.08,5H17.05A14.19,14.19,0,1,0,34.91,24.59Z"/><polygon class="cls-3" points="23.91 14.08 17.05 20.94 28.52 20.95 35.39 14.08 23.91 14.08"/><path class="cls-4" d="M38.63,29.93a10.54,10.54,0,0,0-12.41,3.35,7.09,7.09,0,1,1-2.08,5,10.55,10.55,0,0,0,19.73,6.43,15,15,0,0,0,.64-1.48A10.56,10.56,0,0,0,38.63,29.93Z"/></svg>