<svg id="Layer_1" data-name="Layer 1" xmlns="http://www.w3.org/2000/svg" viewBox="0 0 64 64"><defs><style>.cls-1{fill:#fff;}.cls-2{fill:#1b75bb;}.cls-3{fill:#fbb03b;}</style></defs><title>new</title><path class="cls-1" d="M32,64A32,32,0,1,1,64,32,32,32,0,0,1,32,64Z"/><path class="cls-2" d="M23.72,52.53h16l-2.11-2.91a36.81,36.81,0,0,0,4.61-2.8l-.83-1.13S33.34,52.32,23.72,52.53Z"/><path class="cls-2" d="M52.89,18.93s4,8.71-5,20.38v2.31C58.83,28.5,52.89,18.93,52.89,18.93Z"/><path class="cls-3" d="M15.36,22.9C20.83,16.31,26.26,14,26.26,14H12.58l2.78,3.82Z"/><path class="cls-2" d="M12.9,27.87h1.7a36.44,36.44,0,0,1,2.87-4.08h8.81V49l-2,2.79c6.74-.26,13-4.16,13-4.16V23.79H48.1v-6L50.89,14H30.24a29.11,29.11,0,0,1,9.55-2.49C31.09,11.47,19.85,15.71,12.9,27.87Z"/><path class="cls-2" d="M11.87,34.27H10.43c-2.69,12.36,5.69,17,10,17.69C20.47,52,8.16,48.77,11.87,34.27Z"/><polygon class="cls-2" points="24.13 28.62 9.5 28.62 10.89 30.53 10.89 33.53 16.35 33.53 16.35 44.73 14.96 46.63 20.42 46.63 21.8 44.73 21.8 33.53 24.13 33.53 24.13 28.62"/><polygon class="cls-2" points="47.13 35.42 48.5 33.53 41.66 33.53 41.66 44.74 43.04 46.63 48.51 46.63 47.12 44.73 47.13 35.42"/><path class="cls-2" d="M41.71,29.83a2.69,2.69,0,1,0,2.68-2.68A2.69,2.69,0,0,0,41.71,29.83Z"/><path class="cls-2" d="M32,1A31,31,0,1,1,1,32,31,31,0,0,1,32,1m0-1A32,32,0,1,0,64,32,32,32,0,0,0,32,0Z"/></svg>