<svg id="Layer_1" data-name="Layer 1" xmlns="http://www.w3.org/2000/svg" viewBox="0 0 64 64"><defs><style>.cls-1{fill:#0071bb;}.cls-2{fill:#fff;}</style></defs><title>new</title><path class="cls-1" d="M32,0A32,32,0,1,0,64,32,32,32,0,0,0,32,0Z"/><path class="cls-2" d="M24.54,13.26A6,6,0,0,0,19,17.83L12,50.74h9.14l7-32.91A3.59,3.59,0,0,0,24.54,13.26Zm2.68,4.57-6.8,32H13.11l6.8-32a4.77,4.77,0,0,1,4.43-3.65A2.87,2.87,0,0,1,27.22,17.83ZM48.3,13.26a6,6,0,0,0-5.54,4.57l-7,32.91H44.9l7-32.91A3.6,3.6,0,0,0,48.3,13.26ZM51,17.83l-6.8,32H36.87l6.8-32a4.78,4.78,0,0,1,4.44-3.65A2.87,2.87,0,0,1,51,17.83ZM36.42,13.26a6,6,0,0,0-5.54,4.57l-7,32.91H33l7-32.91A3.6,3.6,0,0,0,36.42,13.26Zm2.68,4.57-6.8,32H25l6.8-32a4.78,4.78,0,0,1,4.43-3.65A2.87,2.87,0,0,1,39.1,17.83Z"/></svg>