<svg id="Layer_1" data-name="Layer 1" xmlns="http://www.w3.org/2000/svg" xmlns:xlink="http://www.w3.org/1999/xlink" viewBox="0 0 64 64"><defs><style>.cls-1{fill:#fff;}.cls-2{fill:url(#linear-gradient);}</style><linearGradient id="linear-gradient" x1="0.21" y1="32" x2="60.33" y2="32" gradientUnits="userSpaceOnUse"><stop offset="0" stop-color="#ed8121"/><stop offset="1" stop-color="#ffbe13"/></linearGradient></defs><title>new</title><path class="cls-1" d="M61,18.48A32,32,0,1,0,45.52,61,32,32,0,0,0,61,18.48Z"/><path class="cls-2" d="M54.94,54.31a29.86,29.86,0,0,0,2.45-2.84V35.88a4.17,4.17,0,0,0,1.72-1,4.16,4.16,0,0,0-5.78-6L36.77,19.33a4,4,0,0,0,.1-.92,4.12,4.12,0,0,0-1.22-2.94,4.18,4.18,0,0,0-1.71-1V.06Q32.71,0,31.48,0V14.44a4.37,4.37,0,0,0-1.6.93L13.45,5.93C12.73,6.44,12,7,11.36,7.55l.44.25,16.86,9.7a4,4,0,0,0-.11.91,4.71,4.71,0,0,0,.1.92L12.09,28.86a4.08,4.08,0,0,0-1.61-.93V8.32A30.15,30.15,0,0,0,8,10.8V27.93a4.33,4.33,0,0,0-1.61.93l-5.22-3-.54-.3c-.17.85-.32,1.71-.42,2.58L5.2,31a4.28,4.28,0,0,0,0,1.84l-5,2.87c.1.86.24,1.73.41,2.59L1.16,38l5.26-3a4.16,4.16,0,0,0,1.6.92V53.19a32.13,32.13,0,0,0,2.46,2.49V35.87a4.11,4.11,0,0,0,1.6-.93l16.57,9.53a4.28,4.28,0,0,0,0,1.84l-17,9.76-.45.26c.67.58,1.37,1.12,2.08,1.64l16.58-9.54a4.11,4.11,0,0,0,1.6.93V64q1.23,0,2.46-.06V49.36a4.21,4.21,0,0,0,1.6-.92l15.78,9.07c.7-.53,1.38-1.09,2-1.67l-.1-.06L36.76,46.31a4.06,4.06,0,0,0,.11-.92,3.91,3.91,0,0,0-.11-.91L53.34,35a4.21,4.21,0,0,0,1.6.92V54.31ZM9.25,34.64A2.74,2.74,0,0,1,7.32,30a2.69,2.69,0,0,1,1.94-.8,2.74,2.74,0,1,1,0,5.48Zm23.46-19A2.74,2.74,0,1,1,30,18.41,2.74,2.74,0,0,1,32.71,15.67ZM29.88,42.35,13.31,32.82a4.28,4.28,0,0,0,0-1.84l16.57-9.52a4.24,4.24,0,0,0,1.6.93v19A4.24,4.24,0,0,0,29.88,42.35Zm4.77,5a2.74,2.74,0,1,1-1.94-4.68,2.74,2.74,0,0,1,1.94,4.68ZM52.11,32.82,35.54,42.35a4.37,4.37,0,0,0-1.6-.93v-19a4.11,4.11,0,0,0,1.6-.93L52.11,31a4,4,0,0,0-.1.91A4.05,4.05,0,0,0,52.11,32.82Zm1.32-.92a2.74,2.74,0,1,1,2.74,2.74A2.74,2.74,0,0,1,53.43,31.9Z"/></svg>